<svg width="771" height="258" viewBox="0 0 771 258" fill="none" xmlns="http://www.w3.org/2000/svg">
<rect width="771" height="258" rx="46" fill="#CBB796"/>
<g filter="url(#filter0_d_340_1104)">
<path d="M192.2 69.1923H94.6425C92.154 69.1923 90.2029 71.3297 90.4293 73.808L99.776 176.129C99.9428 177.955 101.267 179.466 103.056 179.871L143.522 189.024C144.152 189.166 144.805 189.163 145.433 189.014L183.828 179.895C185.596 179.475 186.898 177.973 187.063 176.164L196.413 73.808C196.639 71.3297 194.688 69.1923 192.2 69.1923Z" fill="#DB5C01"/>
<path d="M186.92 74.4808H148.181C145.844 74.4808 143.95 76.3749 143.95 78.7115V178.165C143.95 180.866 146.448 182.876 149.087 182.297L179.524 175.626C181.328 175.231 182.668 173.71 182.832 171.87L191.134 79.0886C191.355 76.613 189.405 74.4808 186.92 74.4808Z" fill="#F8A73F"/>
<path d="M146.264 116.603C151.778 120.106 155.606 123.122 157.747 125.652C159.887 128.117 160.958 130.842 160.958 133.826C160.958 140.703 157.584 146.833 150.838 152.217C144.091 157.602 133.29 162.759 118.434 167.689L116.975 163.018C125.473 159.905 131.928 157.148 136.339 154.747C140.75 152.412 143.832 149.979 145.583 147.449C147.4 144.984 148.308 141.968 148.308 138.4C148.308 136.583 147.919 134.994 147.14 133.632C146.426 132.204 145.129 130.745 143.248 129.253C141.431 127.696 138.772 125.814 135.269 123.609V121.176C138.836 116.895 141.204 113.716 142.372 111.64C143.605 109.499 144.221 107.391 144.221 105.315C144.221 101.942 143.215 99.1846 141.204 97.0438C139.258 94.8382 136.728 93.7354 133.614 93.7354C129.722 93.7354 124.792 96.1681 118.824 101.033L115.904 97.3358L129.917 86.2427C131.279 85.7237 132.641 85.4642 134.004 85.4642C138.09 85.4642 141.885 86.1129 145.389 87.4104C148.892 88.7078 151.681 90.4594 153.757 92.665C155.833 94.8058 156.871 97.1736 156.871 99.7685C156.676 102.104 155.768 104.537 154.146 107.067C152.589 109.597 149.962 112.775 146.264 116.603Z" fill="#CBB796"/>
<path fill-rule="evenodd" clip-rule="evenodd" d="M143.95 156.842C146.587 155.319 148.882 153.778 150.838 152.217C157.584 146.833 160.958 140.703 160.958 133.826C160.958 130.842 159.887 128.117 157.747 125.652C155.606 123.122 151.778 120.106 146.264 116.603C149.962 112.775 152.589 109.597 154.146 107.067C155.768 104.537 156.676 102.104 156.871 99.7685C156.871 97.1736 155.833 94.8058 153.757 92.665C151.681 90.4594 148.892 88.7079 145.389 87.4104C144.914 87.2348 144.435 87.0711 143.95 86.9193V102.449C144.131 103.349 144.221 104.304 144.221 105.315C144.221 106.109 144.131 106.909 143.95 107.713V129.831C145.456 131.123 146.519 132.389 147.14 133.632C147.919 134.994 148.308 136.583 148.308 138.4C148.308 141.968 147.4 144.984 145.583 147.449C145.128 148.106 144.584 148.756 143.95 149.4V156.842Z" fill="#1B1612"/>
</g>
<g filter="url(#filter1_d_340_1104)">
<path d="M706.2 69H608.643C606.154 69 604.203 71.1374 604.429 73.6156L613.776 175.937C613.943 177.763 615.267 179.274 617.056 179.679L657.522 188.832C658.152 188.974 658.805 188.971 659.433 188.821L697.828 179.703C699.596 179.283 700.898 177.781 701.063 175.971L710.413 73.6156C710.639 71.1374 708.688 69 706.2 69Z" fill="#F8A73F"/>
<path d="M700.92 74.2885H662.181C659.844 74.2885 657.95 76.1826 657.95 78.5192V177.972C657.95 180.674 660.448 182.683 663.087 182.105L693.524 175.434C695.328 175.038 696.668 173.518 696.832 171.678L705.134 78.8963C705.355 76.4207 703.405 74.2885 700.92 74.2885Z" fill="#1B1612"/>
<path d="M647.043 136.737C647.043 138.424 647.086 139.984 647.17 141.418C647.297 142.81 647.444 143.759 647.613 144.265L635.466 159.702L633.062 157.804C635.466 154.767 637.069 152.195 637.87 150.086C638.713 147.977 639.135 145.383 639.135 142.304V98.2712L631.29 95.8038L632.556 93.2732H653.054V95.2344L647.043 99.9161V136.737Z" fill="#1B1612"/>
<path d="M687.965 131.802C687.965 130.494 687.438 129.271 686.384 128.133C685.329 126.994 684.001 125.96 682.398 125.033C680.838 124.062 678.708 122.882 676.008 121.49C672.803 119.803 670.23 118.369 668.29 117.188C666.35 115.964 664.684 114.53 663.292 112.886C661.942 111.241 661.267 109.427 661.267 107.445C661.267 105.336 662.153 103.079 663.925 100.675C665.696 98.229 667.847 96.1834 670.378 94.5385C672.95 92.8514 675.312 92.0079 677.463 92.0079C680.078 92.0079 683.115 92.3242 686.574 92.9569C690.032 93.5895 692.563 94.2644 694.165 94.9814V107.255H691.761C689.695 103.839 687.417 101.181 684.929 99.2834C682.482 97.3855 679.91 96.4365 677.21 96.4365C674.806 96.4365 672.887 97.1957 671.453 98.714C670.061 100.19 669.365 102.13 669.365 104.534C669.365 105.926 669.893 107.234 670.947 108.457C672.044 109.638 673.372 110.692 674.933 111.62C676.535 112.548 678.75 113.75 681.576 115.226C684.697 116.787 687.227 118.179 689.168 119.402C691.108 120.583 692.731 121.975 694.039 123.577C695.389 125.138 696.063 126.909 696.063 128.892C696.063 131.001 695.114 133.278 693.217 135.724C691.319 138.129 688.999 140.174 686.257 141.861C683.558 143.506 681.091 144.329 678.855 144.329C676.114 144.329 672.845 144.012 669.049 143.38C665.295 142.747 662.596 142.072 660.951 141.355V129.082H663.355C665.506 132.498 667.952 135.155 670.694 137.053C673.435 138.951 676.261 139.9 679.172 139.9C680.901 139.9 682.44 139.52 683.79 138.761C685.14 138.002 686.173 137.011 686.89 135.788C687.607 134.522 687.965 133.194 687.965 131.802Z" fill="#CBB796"/>
</g>
<g filter="url(#filter2_d_340_1104)">
<path d="M450.192 69.1923H352.635C350.146 69.1923 348.195 71.3297 348.422 73.808L357.768 176.129C357.935 177.955 359.259 179.466 361.048 179.871L401.514 189.024C402.144 189.166 402.798 189.163 403.425 189.014L441.82 179.895C443.588 179.475 444.89 177.973 445.056 176.164L454.405 73.808C454.632 71.3297 452.681 69.1923 450.192 69.1923Z" fill="#1B1612"/>
<path d="M444.912 74.4808H406.173C403.836 74.4808 401.942 76.3749 401.942 78.7115V178.165C401.942 180.866 404.44 182.876 407.079 182.297L437.516 175.626C439.321 175.231 440.66 173.71 440.825 171.87L449.126 79.0886C449.348 76.613 447.398 74.4808 444.912 74.4808Z" fill="#DB5C01"/>
<path d="M384.309 106.191C393.91 110.407 401.272 114.073 406.397 117.187C411.522 120.236 415.058 123.057 417.004 125.652C419.015 128.182 420.02 130.907 420.02 133.826C420.02 139.6 417.977 144.595 413.89 148.812C409.803 153.093 404.776 156.629 398.807 159.418C392.839 162.208 385.736 164.965 377.497 167.689L376.037 163.018C384.925 159.775 391.574 156.921 395.985 154.455C400.462 151.99 403.478 149.558 405.035 147.157C406.592 144.757 407.37 141.838 407.37 138.4C407.37 135.74 406.624 133.404 405.132 131.393C403.705 129.318 400.916 127.047 396.764 124.582C392.612 122.117 386.417 119.068 378.178 115.435L384.406 86.4373H412.722L415.836 78.5554L418.755 79.5285V99.9631L413.404 98.2115H385.865L384.211 106.191H384.309Z" fill="#CBB796"/>
<path fill-rule="evenodd" clip-rule="evenodd" d="M401.942 157.837C406.557 155.33 410.54 152.322 413.89 148.812C417.977 144.595 420.02 139.6 420.02 133.826C420.02 130.907 419.015 128.182 417.004 125.652C415.058 123.057 411.522 120.236 406.397 117.187C405.064 116.376 403.579 115.529 401.942 114.644V128.111C403.351 129.255 404.414 130.349 405.132 131.394C406.624 133.405 407.37 135.74 407.37 138.4C407.37 141.838 406.592 144.757 405.035 147.157C404.316 148.266 403.285 149.382 401.942 150.505V157.837ZM401.942 86.4373V98.2116H413.403L418.755 99.9631V79.5285L415.836 78.5554L412.722 86.4373H401.942Z" fill="#1B1612"/>
</g>
<defs>
<filter id="filter0_d_340_1104" x="52.8077" y="31.8" width="181.227" height="194.528" filterUnits="userSpaceOnUse" color-interpolation-filters="sRGB">
<feFlood flood-opacity="0" result="BackgroundImageFix"/>
<feColorMatrix in="SourceAlpha" type="matrix" values="0 0 0 0 0 0 0 0 0 0 0 0 0 0 0 0 0 0 127 0" result="hardAlpha"/>
<feOffset/>
<feGaussianBlur stdDeviation="18.6"/>
<feComposite in2="hardAlpha" operator="out"/>
<feColorMatrix type="matrix" values="0 0 0 0 0.105882 0 0 0 0 0.0862745 0 0 0 0 0.0705882 0 0 0 1 0"/>
<feBlend mode="normal" in2="BackgroundImageFix" result="effect1_dropShadow_340_1104"/>
<feBlend mode="normal" in="SourceGraphic" in2="effect1_dropShadow_340_1104" result="shape"/>
</filter>
<filter id="filter1_d_340_1104" x="567.211" y="31.8" width="180.42" height="194.336" filterUnits="userSpaceOnUse" color-interpolation-filters="sRGB">
<feFlood flood-opacity="0" result="BackgroundImageFix"/>
<feColorMatrix in="SourceAlpha" type="matrix" values="0 0 0 0 0 0 0 0 0 0 0 0 0 0 0 0 0 0 127 0" result="hardAlpha"/>
<feOffset/>
<feGaussianBlur stdDeviation="18.6"/>
<feComposite in2="hardAlpha" operator="out"/>
<feColorMatrix type="matrix" values="0 0 0 0 0.105882 0 0 0 0 0.0862745 0 0 0 0 0.0705882 0 0 0 1 0"/>
<feBlend mode="normal" in2="BackgroundImageFix" result="effect1_dropShadow_340_1104"/>
<feBlend mode="normal" in="SourceGraphic" in2="effect1_dropShadow_340_1104" result="shape"/>
</filter>
<filter id="filter2_d_340_1104" x="309.8" y="31.8" width="181.823" height="194.528" filterUnits="userSpaceOnUse" color-interpolation-filters="sRGB">
<feFlood flood-opacity="0" result="BackgroundImageFix"/>
<feColorMatrix in="SourceAlpha" type="matrix" values="0 0 0 0 0 0 0 0 0 0 0 0 0 0 0 0 0 0 127 0" result="hardAlpha"/>
<feOffset/>
<feGaussianBlur stdDeviation="18.6"/>
<feComposite in2="hardAlpha" operator="out"/>
<feColorMatrix type="matrix" values="0 0 0 0 0.105882 0 0 0 0 0.0862745 0 0 0 0 0.0705882 0 0 0 1 0"/>
<feBlend mode="normal" in2="BackgroundImageFix" result="effect1_dropShadow_340_1104"/>
<feBlend mode="normal" in="SourceGraphic" in2="effect1_dropShadow_340_1104" result="shape"/>
</filter>
</defs>
</svg>
