<svg width="225" height="258" viewBox="0 0 225 258" fill="none" xmlns="http://www.w3.org/2000/svg">
<rect width="225" height="258" rx="46" fill="#CBB796"/>
<g filter="url(#filter0_d_344_1171)">
<path d="M102.271 79.7937C107.68 74.3848 116.45 74.3848 121.859 79.7937L160.336 118.271C165.745 123.68 165.745 132.45 160.336 137.859L121.859 176.336C116.45 181.745 107.68 181.745 102.271 176.336L63.7937 137.859C58.3848 132.45 58.3848 123.68 63.7937 118.271L102.271 79.7937Z" fill="#1B1612"/>
<path d="M102.804 81.9245C108.213 76.5156 116.982 76.5156 122.391 81.9245L156.075 115.608C161.484 121.017 161.484 129.786 156.075 135.195L122.391 168.878C116.982 174.287 108.213 174.287 102.804 168.878L69.1207 135.195C63.7118 129.786 63.7118 121.017 69.1207 115.608L102.804 81.9245Z" fill="#DB5C01"/>
<circle cx="112.598" cy="101.962" r="6.39248" fill="#1B1612"/>
<circle cx="112.598" cy="148.841" r="6.39248" fill="#1B1612"/>
<circle cx="133.906" cy="122.205" r="6.39248" fill="#1B1612"/>
<line x1="97.0579" y1="85.5399" x2="132.216" y2="120.699" stroke="#1B1612" stroke-width="4.26165"/>
<line x1="112.598" y1="151.684" x2="112.598" y2="101.962" stroke="#1B1612" stroke-width="4.26165"/>
</g>
<defs>
<filter id="filter0_d_344_1171" x="22.5371" y="38.5371" width="179.056" height="179.056" filterUnits="userSpaceOnUse" color-interpolation-filters="sRGB">
<feFlood flood-opacity="0" result="BackgroundImageFix"/>
<feColorMatrix in="SourceAlpha" type="matrix" values="0 0 0 0 0 0 0 0 0 0 0 0 0 0 0 0 0 0 127 0" result="hardAlpha"/>
<feOffset/>
<feGaussianBlur stdDeviation="18.6"/>
<feComposite in2="hardAlpha" operator="out"/>
<feColorMatrix type="matrix" values="0 0 0 0 0.105882 0 0 0 0 0.0862745 0 0 0 0 0.0705882 0 0 0 1 0"/>
<feBlend mode="normal" in2="BackgroundImageFix" result="effect1_dropShadow_344_1171"/>
<feBlend mode="normal" in="SourceGraphic" in2="effect1_dropShadow_344_1171" result="shape"/>
</filter>
</defs>
</svg>
