<svg width="225" height="258" viewBox="0 0 225 258" fill="none" xmlns="http://www.w3.org/2000/svg">
<rect width="225" height="258" rx="46" fill="#CBB796"/>
<g filter="url(#filter0_d_340_1095)">
<rect x="54" y="71" width="116.13" height="116.13" rx="10.8388" fill="#DB5C01"/>
<rect x="63.2904" y="80.2904" width="97.5492" height="97.5492" fill="#1B1612"/>
<path d="M100.811 131.507C103.412 131.507 105.459 130.799 106.951 129.384C108.481 127.968 109.246 126.017 109.246 123.531C109.246 120.011 108.347 117.142 106.549 114.923C104.789 112.666 102.207 111.538 98.8025 111.538C96.2012 111.538 93.8294 112.284 91.6872 113.776V148.779L100.581 151.246L99.4337 153.541H79.1205V151.763L84.5144 147.516V112.628L78.5467 110.677L79.6943 108.382H86.3506C90.0613 108.382 93.7147 108.267 97.3106 108.038C99.9884 107.885 101.959 107.808 103.221 107.808C105.899 107.808 108.271 108.382 110.336 109.529C112.44 110.639 114.066 112.188 115.214 114.177C116.361 116.167 116.935 118.366 116.935 120.776C116.935 123.454 115.96 125.979 114.009 128.351C112.058 130.723 109.571 132.578 106.549 133.917C103.527 135.256 100.562 135.849 97.6549 135.696L94.9579 133.745L96.1056 131.449H100.753L100.811 131.507ZM139.17 147.287C139.17 146.216 138.577 145.24 137.391 144.36C136.205 143.442 134.388 142.352 131.94 141.09C129.951 140.057 128.344 139.158 127.12 138.393C125.896 137.627 124.844 136.748 123.964 135.753C123.122 134.72 122.702 133.611 122.702 132.425C122.702 131.048 123.275 129.575 124.423 128.006C125.571 126.438 126.986 125.118 128.669 124.047C130.353 122.976 131.921 122.44 133.375 122.44C135.134 122.44 137.162 122.67 139.457 123.129C141.791 123.55 143.474 124.028 144.507 124.564V133.4H142.326C141.102 131.029 139.687 129.192 138.08 127.892C136.473 126.553 134.828 125.883 133.145 125.883C131.959 125.883 131.003 126.208 130.276 126.859C129.549 127.471 129.186 128.255 129.186 129.211C129.186 130.397 129.798 131.468 131.022 132.425C132.284 133.343 134.178 134.433 136.703 135.696C138.654 136.69 140.222 137.551 141.408 138.278C142.594 139.005 143.589 139.865 144.392 140.86C145.234 141.816 145.654 142.887 145.654 144.073C145.654 145.489 145.042 146.981 143.818 148.549C142.632 150.079 141.159 151.38 139.4 152.451C137.678 153.522 136.091 154.058 134.637 154.058C132.763 154.058 130.525 153.847 127.923 153.427C125.36 152.968 123.524 152.47 122.415 151.935V143.098H124.595C125.934 145.47 127.522 147.325 129.358 148.664C131.194 149.965 133.049 150.615 134.924 150.615C136.186 150.615 137.2 150.29 137.965 149.639C138.769 148.989 139.17 148.205 139.17 147.287Z" fill="#DB5C01"/>
</g>
<defs>
<filter id="filter0_d_340_1095" x="16.8" y="33.8" width="190.53" height="190.53" filterUnits="userSpaceOnUse" color-interpolation-filters="sRGB">
<feFlood flood-opacity="0" result="BackgroundImageFix"/>
<feColorMatrix in="SourceAlpha" type="matrix" values="0 0 0 0 0 0 0 0 0 0 0 0 0 0 0 0 0 0 127 0" result="hardAlpha"/>
<feOffset/>
<feGaussianBlur stdDeviation="18.6"/>
<feComposite in2="hardAlpha" operator="out"/>
<feColorMatrix type="matrix" values="0 0 0 0 0.105882 0 0 0 0 0.0862745 0 0 0 0 0.0705882 0 0 0 1 0"/>
<feBlend mode="normal" in2="BackgroundImageFix" result="effect1_dropShadow_340_1095"/>
<feBlend mode="normal" in="SourceGraphic" in2="effect1_dropShadow_340_1095" result="shape"/>
</filter>
</defs>
</svg>
