<svg width="225" height="258" viewBox="0 0 225 258" fill="none" xmlns="http://www.w3.org/2000/svg">
<rect width="225" height="258" rx="46" fill="#CBB796"/>
<g filter="url(#filter0_d_303_1071)">
<path d="M135.872 173.463C135.872 181.008 129.755 187.125 122.21 187.125H103.084C95.5386 187.125 89.422 181.008 89.422 173.463V136.576C89.422 129.031 95.5386 122.915 103.084 122.915H120.161H122.21C124.699 122.915 127.032 123.58 129.041 124.742C133.125 127.105 135.872 131.52 135.872 136.576V173.463Z" fill="#F8A73F"/>
<path d="M167.294 129.746C167.294 144.081 155.673 155.703 141.337 155.703H129.041V124.742V116.084V103.788H141.337C155.673 103.788 167.294 115.41 167.294 129.746Z" fill="#F8A73F"/>
<path d="M122.21 122.915C124.699 122.915 127.032 123.58 129.041 124.742V116.084C128.495 120.456 122.893 122.459 120.161 122.915H122.21Z" fill="#F8A73F"/>
<path d="M89.4221 84.6618C89.4221 77.1166 95.5386 71 103.084 71H122.21C129.755 71 135.872 77.1166 135.872 84.6618V121.549C135.872 129.094 129.755 135.21 122.21 135.21H105.133H103.084C100.595 135.21 98.2624 134.545 96.2529 133.383C92.1694 131.02 89.4221 126.605 89.4221 121.549V84.6618Z" fill="#DB5C01"/>
<path d="M58 128.379C58 114.044 69.6215 102.422 83.9574 102.422H96.2529V133.383V142.041V154.337H83.9574C69.6215 154.337 58 142.715 58 128.379Z" fill="#DB5C01"/>
<path d="M103.084 135.21C100.595 135.21 98.2624 134.545 96.2529 133.383V142.041C96.7994 137.669 102.401 135.666 105.133 135.21H103.084Z" fill="#DB5C01"/>
<g style="mix-blend-mode:soft-light">
<path d="M135.872 173.463C135.872 181.008 129.755 187.125 122.21 187.125H103.084C95.5386 187.125 89.422 181.008 89.422 173.463V136.576C89.422 129.031 95.5386 122.915 103.084 122.915H120.161H122.21C124.699 122.915 127.032 123.58 129.041 124.742C133.125 127.105 135.872 131.52 135.872 136.576V173.463Z" fill="#F8A73F"/>
<path d="M167.294 129.746C167.294 144.081 155.673 155.703 141.337 155.703H129.041V124.742V116.084V103.788H141.337C155.673 103.788 167.294 115.41 167.294 129.746Z" fill="#F8A73F"/>
<path d="M122.21 122.915C124.699 122.915 127.032 123.58 129.041 124.742V116.084C128.495 120.456 122.893 122.459 120.161 122.915H122.21Z" fill="#F8A73F"/>
</g>
<rect x="89.5" y="98.5" width="25" height="4" fill="#F8A73F"/>
<rect x="110.9" y="155.7" width="25" height="4" fill="#DB5C01"/>
<circle cx="100" cy="89" r="5" fill="#CBB796"/>
<circle cx="125" cy="169" r="5" fill="#CBB796"/>
</g>
<defs>
<filter id="filter0_d_303_1071" x="20.8" y="33.8" width="183.694" height="190.525" filterUnits="userSpaceOnUse" color-interpolation-filters="sRGB">
<feFlood flood-opacity="0" result="BackgroundImageFix"/>
<feColorMatrix in="SourceAlpha" type="matrix" values="0 0 0 0 0 0 0 0 0 0 0 0 0 0 0 0 0 0 127 0" result="hardAlpha"/>
<feOffset/>
<feGaussianBlur stdDeviation="18.6"/>
<feComposite in2="hardAlpha" operator="out"/>
<feColorMatrix type="matrix" values="0 0 0 0 0.105882 0 0 0 0 0.0862745 0 0 0 0 0.0705882 0 0 0 1 0"/>
<feBlend mode="normal" in2="BackgroundImageFix" result="effect1_dropShadow_303_1071"/>
<feBlend mode="normal" in="SourceGraphic" in2="effect1_dropShadow_303_1071" result="shape"/>
</filter>
</defs>
</svg>
