<svg width="225" height="258" viewBox="0 0 225 258" fill="none" xmlns="http://www.w3.org/2000/svg">
<rect width="225" height="258" rx="46" fill="#CBB796"/>
<g filter="url(#filter0_d_340_1155)">
<g filter="url(#filter1_d_340_1155)">
<path fill-rule="evenodd" clip-rule="evenodd" d="M160.964 187.13H115.994H114.978C114.968 187.13 114.96 187.122 114.96 187.112C114.96 187.103 114.953 187.095 114.944 187.095C107.25 186.575 101.176 180.386 101.176 172.829C101.176 164.931 107.81 158.528 115.994 158.528C118.844 158.528 121.793 156.94 123.178 154.449C126.614 148.268 133.45 144.055 141.322 144.055C152.646 144.055 161.826 152.772 161.826 163.525C161.826 166.379 161.179 169.089 160.018 171.531C159.705 172.189 160.236 173.001 160.964 173.001C166.388 173.001 170.785 176.164 170.785 180.066C170.785 183.755 166.853 186.784 161.839 187.102C161.832 187.103 161.826 187.109 161.826 187.116C161.826 187.124 161.82 187.13 161.812 187.13H160.964Z" fill="#DB5C01"/>
</g>
<g filter="url(#filter2_d_340_1155)">
<path fill-rule="evenodd" clip-rule="evenodd" d="M134.255 86.1624C134.257 86.105 134.258 86.0476 134.258 85.9901C134.258 77.7113 116.515 71 94.6289 71C72.7425 71 55 77.7113 55 85.9901C55 86.0476 55.0009 86.105 55.0026 86.1624H55V161.113V161.285H55.0026C55.2467 169.484 72.8945 176.103 94.6289 176.103C95.7835 176.103 96.9264 176.084 98.0559 176.048C96.9679 174.057 96.3519 171.79 96.3519 169.383C96.3519 161.485 102.986 155.082 111.17 155.082C114.02 155.082 116.969 153.494 118.354 151.003C121.459 145.416 127.342 141.437 134.258 140.724V86.1624H134.255ZM121.163 86.1624C121.163 91.6816 109.283 96.1558 94.6289 96.1558C79.9745 96.1558 68.0948 91.6816 68.0948 86.1624C68.0948 80.6432 79.9745 76.169 94.6289 76.169C109.283 76.169 121.163 80.6432 121.163 86.1624Z" fill="#1B1612"/>
</g>
<path d="M79.8204 125.467C79.8204 125.041 79.6487 124.643 79.3051 124.272C78.9616 123.9 78.5287 123.564 78.0066 123.262C77.4981 122.945 76.8042 122.561 75.9247 122.107C74.8804 121.558 74.0422 121.09 73.4101 120.706C72.778 120.307 72.2352 119.84 71.7817 119.304C71.342 118.768 71.1221 118.177 71.1221 117.531C71.1221 116.844 71.4107 116.109 71.9878 115.326C72.565 114.529 73.2658 113.862 74.0903 113.326C74.9285 112.777 75.698 112.502 76.3988 112.502C77.2508 112.502 78.2402 112.605 79.367 112.811C80.4938 113.017 81.3183 113.237 81.8404 113.471V117.469H81.0572C80.3838 116.356 79.6418 115.491 78.8311 114.872C78.0341 114.254 77.1958 113.945 76.3164 113.945C75.5331 113.945 74.9079 114.192 74.4407 114.687C73.9872 115.168 73.7605 115.8 73.7605 116.583C73.7605 117.037 73.9322 117.463 74.2758 117.861C74.6331 118.246 75.0659 118.589 75.5743 118.892C76.0965 119.194 76.8179 119.586 77.7386 120.067C78.7555 120.575 79.58 121.029 80.2121 121.427C80.8442 121.812 81.3732 122.265 81.7992 122.787C82.2389 123.296 82.4588 123.873 82.4588 124.519C82.4588 125.206 82.1496 125.948 81.5313 126.745C80.9129 127.528 80.1571 128.195 79.2639 128.744C78.3845 129.28 77.5806 129.548 76.8523 129.548C75.9591 129.548 74.8941 129.445 73.6574 129.239C72.4344 129.033 71.555 128.813 71.0191 128.579V124.581H71.8023C72.5031 125.694 73.3001 126.559 74.1933 127.178C75.0865 127.796 76.0072 128.105 76.9554 128.105C77.5188 128.105 78.0203 127.982 78.46 127.734C78.8998 127.487 79.2364 127.164 79.47 126.766C79.7036 126.353 79.8204 125.92 79.8204 125.467ZM105.734 133.032C103.59 134.049 102.113 134.557 101.302 134.557C100.794 134.557 100.011 134.014 98.9525 132.929C97.9082 131.857 96.7196 130.544 95.3866 128.992C94.466 129.349 93.5865 129.528 92.7483 129.528C91.2917 129.528 90 129.184 88.8732 128.497C87.7601 127.796 86.8944 126.827 86.2761 125.591C85.6577 124.354 85.3485 122.952 85.3485 121.386C85.3485 119.778 85.8157 118.294 86.7502 116.934C87.6846 115.559 88.8457 114.481 90.2336 113.697C91.6215 112.9 92.9475 112.502 94.2117 112.502C95.6683 112.502 96.9532 112.852 98.0662 113.553C99.193 114.254 100.066 115.223 100.684 116.459C101.302 117.696 101.612 119.098 101.612 120.664C101.612 122.245 101.158 123.708 100.251 125.055C99.3442 126.401 98.1968 127.48 96.8089 128.291C98.1006 129.267 99.3098 130.146 100.437 130.929C101.577 131.712 102.271 132.104 102.518 132.104H105.301L105.734 133.032ZM88.1518 120.396C88.1518 121.743 88.3648 122.98 88.7908 124.107C89.2167 125.22 89.8626 126.113 90.7283 126.786C91.6077 127.46 92.6864 127.796 93.9644 127.796C94.8713 127.796 95.6958 127.535 96.4379 127.013C97.1936 126.477 97.7845 125.742 98.2105 124.807C98.6365 123.859 98.8495 122.801 98.8495 121.633C98.8495 120.273 98.6365 119.036 98.2105 117.923C97.7845 116.796 97.1387 115.903 96.273 115.243C95.4073 114.57 94.3286 114.233 93.0369 114.233C92.1299 114.233 91.2986 114.501 90.5428 115.037C89.8007 115.559 89.2167 116.295 88.7908 117.243C88.3648 118.177 88.1518 119.228 88.1518 120.396ZM116.652 129.115H104.285V128.476L106.223 126.951V114.46L104.079 113.739L104.491 112.914H110.757V113.553L108.799 115.078V128.188H114.117L117.147 123.715L117.765 123.921V129.486L116.652 129.115Z" fill="#CBB796"/>
</g>
<defs>
<filter id="filter0_d_340_1155" x="17.8" y="33.8" width="190.185" height="190.53" filterUnits="userSpaceOnUse" color-interpolation-filters="sRGB">
<feFlood flood-opacity="0" result="BackgroundImageFix"/>
<feColorMatrix in="SourceAlpha" type="matrix" values="0 0 0 0 0 0 0 0 0 0 0 0 0 0 0 0 0 0 127 0" result="hardAlpha"/>
<feOffset/>
<feGaussianBlur stdDeviation="18.6"/>
<feComposite in2="hardAlpha" operator="out"/>
<feColorMatrix type="matrix" values="0 0 0 0 0.105882 0 0 0 0 0.0862745 0 0 0 0 0.0705882 0 0 0 1 0"/>
<feBlend mode="normal" in2="BackgroundImageFix" result="effect1_dropShadow_340_1155"/>
<feBlend mode="normal" in="SourceGraphic" in2="effect1_dropShadow_340_1155" result="shape"/>
</filter>
<filter id="filter1_d_340_1155" x="101.176" y="144.055" width="71.6767" height="44.4533" filterUnits="userSpaceOnUse" color-interpolation-filters="sRGB">
<feFlood flood-opacity="0" result="BackgroundImageFix"/>
<feColorMatrix in="SourceAlpha" type="matrix" values="0 0 0 0 0 0 0 0 0 0 0 0 0 0 0 0 0 0 127 0" result="hardAlpha"/>
<feOffset dx="2.0676" dy="1.3784"/>
<feComposite in2="hardAlpha" operator="out"/>
<feColorMatrix type="matrix" values="0 0 0 0 0.972549 0 0 0 0 0.654902 0 0 0 0 0.247059 0 0 0 1 0"/>
<feBlend mode="normal" in2="BackgroundImageFix" result="effect1_dropShadow_340_1155"/>
<feBlend mode="normal" in="SourceGraphic" in2="effect1_dropShadow_340_1155" result="shape"/>
</filter>
<filter id="filter2_d_340_1155" x="55" y="71" width="80.9808" height="107.86" filterUnits="userSpaceOnUse" color-interpolation-filters="sRGB">
<feFlood flood-opacity="0" result="BackgroundImageFix"/>
<feColorMatrix in="SourceAlpha" type="matrix" values="0 0 0 0 0 0 0 0 0 0 0 0 0 0 0 0 0 0 127 0" result="hardAlpha"/>
<feOffset dx="1.723" dy="2.7568"/>
<feComposite in2="hardAlpha" operator="out"/>
<feColorMatrix type="matrix" values="0 0 0 0 0.858824 0 0 0 0 0.360784 0 0 0 0 0.00392157 0 0 0 1 0"/>
<feBlend mode="normal" in2="BackgroundImageFix" result="effect1_dropShadow_340_1155"/>
<feBlend mode="normal" in="SourceGraphic" in2="effect1_dropShadow_340_1155" result="shape"/>
</filter>
</defs>
</svg>
