<svg width="225" height="258" viewBox="0 0 225 258" fill="none" xmlns="http://www.w3.org/2000/svg">
<rect width="225" height="258" rx="46" fill="#CBB796"/>
<g filter="url(#filter0_d_336_1111)">
<rect width="58.1207" height="58.1207" transform="matrix(0.866025 0.5 -2.20305e-08 1 62 99.949)" fill="#CBB796"/>
<path fill-rule="evenodd" clip-rule="evenodd" d="M62 99.949L112.334 129.009L112.334 187.13L67.2414 161.096L81.8981 152.634L103.463 165.084L103.463 134.131L76.6566 118.654L76.6566 143.693L62 152.155L62 99.949Z" fill="#DB5C01"/>
<rect width="58.1207" height="58.1207" transform="matrix(-0.866025 0.5 -0.866025 -0.5 162.668 100.06)" fill="#CBB796"/>
<path fill-rule="evenodd" clip-rule="evenodd" d="M162.668 100.06L112.334 129.121L62 100.06L107.093 74.0261L107.093 90.9501L85.1421 103.623L111.948 119.1L138.755 103.623L117.456 91.3268L117.456 73.9574L162.668 100.06Z" fill="#F8A73F"/>
<rect width="58.1207" height="58.1207" transform="matrix(0.866025 -0.5 2.20305e-08 1 112.327 129.009)" fill="#CBB796"/>
<path fill-rule="evenodd" clip-rule="evenodd" d="M112.327 129.009L162.661 99.9489L162.661 152.158L148.004 143.696L148.004 118.654L121.198 134.131L121.198 165.084L142.76 152.635L157.416 161.097L112.327 187.13L112.327 129.009Z" fill="#1B1612"/>
</g>
<defs>
<filter id="filter0_d_336_1111" x="24.8" y="33.8" width="175.068" height="190.53" filterUnits="userSpaceOnUse" color-interpolation-filters="sRGB">
<feFlood flood-opacity="0" result="BackgroundImageFix"/>
<feColorMatrix in="SourceAlpha" type="matrix" values="0 0 0 0 0 0 0 0 0 0 0 0 0 0 0 0 0 0 127 0" result="hardAlpha"/>
<feOffset/>
<feGaussianBlur stdDeviation="18.6"/>
<feComposite in2="hardAlpha" operator="out"/>
<feColorMatrix type="matrix" values="0 0 0 0 0.105882 0 0 0 0 0.0862745 0 0 0 0 0.0705882 0 0 0 1 0"/>
<feBlend mode="normal" in2="BackgroundImageFix" result="effect1_dropShadow_336_1111"/>
<feBlend mode="normal" in="SourceGraphic" in2="effect1_dropShadow_336_1111" result="shape"/>
</filter>
</defs>
</svg>
