<svg width="94" height="94" viewBox="0 0 94 94" fill="none" xmlns="http://www.w3.org/2000/svg">
<circle cx="47" cy="47" r="47" fill="#F8A73F"/>
<path d="M31.3714 50.6857L16.9523 46.1797C15.9729 45.8737 15.9254 44.5053 16.8812 44.1321L69.1691 23.7149C69.9647 23.4042 70.791 24.0916 70.6303 24.9305L61.5847 72.1687C61.427 72.9924 60.4346 73.3339 59.8034 72.7816L46.5714 61.2036M31.3714 50.6857L37.3429 69.1429M31.3714 50.6857L54.7927 37.126C55.8987 36.4857 57.0096 37.9498 56.0951 38.8425L39.5143 55.0286M37.3429 69.1429L39.5143 55.0286M37.3429 69.1429L46.5714 61.2036M39.5143 55.0286L46.5714 61.2036" stroke="#1B1612" stroke-width="2.17143"/>
</svg>
