<svg width="94" height="94" viewBox="0 0 94 94" fill="none" xmlns="http://www.w3.org/2000/svg">
<circle cx="47" cy="47" r="47" fill="#F8A73F"/>
<path d="M18.3574 35H27.7614C28.2004 35 28.587 35.2866 28.73 35.7016C29.5997 38.2246 31.7393 43.29 35 48C38.5152 53.0775 39.1383 44.9022 39.0105 39.8593C39.0046 39.6259 38.9151 39.4045 38.76 39.23L36.4794 36.6644C35.9062 36.0195 36.364 35 37.2268 35H48C48.5523 35 49 35.4477 49 36V46.5C51.7147 54.2562 57.1552 42.8996 59.7626 35.669C59.9069 35.2689 60.2849 35 60.7103 35H71.8827C72.4787 35 72.9444 35.5185 72.8358 36.1046C71.5736 42.9186 65.8464 49.4698 63 52L73.3752 62.8075C73.9854 63.4431 73.5349 64.5 72.6538 64.5H60.3124C60.109 64.5 59.9104 64.438 59.7432 64.3222L53.5 60C50.2562 56.7562 48.9339 60.5758 48.5821 63.5582C48.5199 64.0852 48.0847 64.5 47.554 64.5H40.5C29.3938 64.117 20.7626 46.2867 17.415 36.2854C17.2011 35.6464 17.6836 35 18.3574 35Z" stroke="#1B1612" stroke-width="2"/>
</svg>
