<svg width="94" height="94" viewBox="0 0 94 94" fill="none" xmlns="http://www.w3.org/2000/svg">
<circle cx="47" cy="47" r="47" fill="#F8A73F"/>
<circle cx="47" cy="47" r="40.5" stroke="#1B1612" stroke-width="3"/>
<path d="M32.7486 22.8573L39.362 36.0843C39.5537 36.4676 39.5123 36.9263 39.2552 37.2692L34.9386 43.0246C34.7159 43.3216 34.6509 43.7108 34.7803 44.0589C38.0261 52.7918 47.8576 57.936 53.0904 59.6765C53.5304 59.8228 54.0069 59.6665 54.2934 59.3019L59.4719 52.711C59.8038 52.2886 60.3871 52.1578 60.8677 52.3981L72.8685 58.3985C73.3149 58.6217 73.5639 59.1185 73.4619 59.6071C70.8953 71.8944 60.4978 71.7502 55.516 70.0896C46.6525 66.8836 27.7938 57.0771 23.2677 43.4989C19.0083 30.7207 26.4402 24.2892 31.4173 22.3182C31.9316 22.1146 32.5012 22.3626 32.7486 22.8573Z" stroke="#1B1612" stroke-width="2.26304"/>
</svg>
