<svg width="943" height="587" viewBox="0 0 943 587" fill="none" xmlns="http://www.w3.org/2000/svg">
<path d="M642.672 338.054L746.622 278.857L904.658 359.264L718.838 467.458L642.672 338.054Z" fill="#8FC73E"/>
<rect width="337.008" height="193.603" transform="matrix(0.866025 0.5 -0.866025 0.5 462.833 278.09)" fill="#8FC73E"/>
<rect width="60.6319" height="348.088" transform="matrix(0.866025 0.5 -0.866025 0.5 830.09 343.288)" fill="#747686"/>
<rect width="140.391" height="113.37" transform="matrix(0.866025 0.5 -0.866025 0.5 366.427 74.4418)" fill="#8FC73E"/>
<rect width="596.706" height="51.377" transform="matrix(0.866025 0.5 -0.866025 0.5 426.137 40.9431)" fill="#8FC73E"/>
<rect width="76.3512" height="133.891" transform="matrix(0.866025 0.5 -0.866025 0.5 672.479 371.853)" fill="#747686"/>
<path d="M879.672 292.938H887.672V327C884.608 328.237 882.915 328.264 879.672 327V292.938Z" fill="#594A3E"/>
<rect x="895.235" y="302.938" width="5.30675" height="16" transform="rotate(51.7413 895.235 302.938)" fill="#594A3E"/>
<rect x="867.355" y="303.266" width="4.49507" height="17.5912" transform="rotate(-47.7639 867.355 303.266)" fill="#594A3E"/>
<path d="M906.172 272.438C906.172 285.15 896.088 295.438 883.672 295.438C871.256 295.438 861.172 285.15 861.172 272.438C861.172 259.725 871.256 249.438 883.672 249.438C896.088 249.438 906.172 259.725 906.172 272.438Z" fill="url(#paint0_radial_204_575)" stroke="#70943A"/>
<circle cx="864.672" cy="296.938" r="9.5" fill="url(#paint1_radial_204_575)" stroke="#6C9B38"/>
<circle cx="901.672" cy="300.938" r="8.5" fill="url(#paint2_radial_204_575)" stroke="#729B25"/>
<path d="M786.672 238.938H794.672V273C791.608 274.237 789.915 274.264 786.672 273V238.938Z" fill="#594A3E"/>
<rect x="802.235" y="248.938" width="5.30675" height="16" transform="rotate(51.7413 802.235 248.938)" fill="#594A3E"/>
<rect x="774.355" y="249.266" width="4.49507" height="17.5912" transform="rotate(-47.7639 774.355 249.266)" fill="#594A3E"/>
<path d="M813.172 218.438C813.172 231.15 803.088 241.438 790.672 241.438C778.256 241.438 768.172 231.15 768.172 218.438C768.172 205.725 778.256 195.438 790.672 195.438C803.088 195.438 813.172 205.725 813.172 218.438Z" fill="url(#paint3_radial_204_575)" stroke="#70943A"/>
<circle cx="771.672" cy="242.938" r="9.5" fill="url(#paint4_radial_204_575)" stroke="#6C9B38"/>
<circle cx="808.672" cy="246.938" r="8.5" fill="url(#paint5_radial_204_575)" stroke="#729B25"/>
<path d="M454.672 44.9377H462.672V78.9996C459.608 80.2365 457.915 80.2643 454.672 78.9996V44.9377Z" fill="#594A3E"/>
<rect x="470.235" y="54.9377" width="5.30675" height="16" transform="rotate(51.7413 470.235 54.9377)" fill="#594A3E"/>
<rect x="442.355" y="55.2657" width="4.49507" height="17.5912" transform="rotate(-47.7639 442.355 55.2657)" fill="#594A3E"/>
<path d="M481.172 24.4377C481.172 37.1505 471.088 47.4377 458.672 47.4377C446.256 47.4377 436.172 37.1505 436.172 24.4377C436.172 11.725 446.256 1.43774 458.672 1.43774C471.088 1.43774 481.172 11.725 481.172 24.4377Z" fill="url(#paint6_radial_204_575)" stroke="#70943A"/>
<circle cx="439.672" cy="48.9377" r="9.5" fill="url(#paint7_radial_204_575)" stroke="#6C9B38"/>
<circle cx="476.672" cy="52.9377" r="8.5" fill="url(#paint8_radial_204_575)" stroke="#729B25"/>
<rect width="232.299" height="107.71" transform="matrix(0.866025 -0.5 0.866025 0.5 183.247 326.601)" fill="#8B8C90"/>
<rect width="144.193" height="230.403" transform="matrix(0.866025 0.5 -0.866025 0.5 260.326 139.723)" fill="#8B8C90"/>
<rect width="233.383" height="6.93271" transform="matrix(0.866025 -0.5 2.20305e-08 1 71.6714 247.135)" fill="#CAC18A"/>
<rect width="158.428" height="7.88121" transform="matrix(0.866025 0.5 -0.866025 0.5 267.497 127.938)" fill="#F1DDB5"/>
<rect width="160.859" height="8.45494" transform="matrix(0.866025 0.5 -2.20305e-08 1 260.671 131.686)" fill="#CEC292"/>
<rect width="7.02249" height="232.753" transform="matrix(0.866025 0.5 -0.866025 0.5 267.242 127.786)" fill="#F1DDB5"/>
<rect width="160.859" height="8.21172" transform="matrix(0.866025 0.5 -2.20305e-08 1 65.6714 243.929)" fill="#CEC292"/>
<rect width="160.394" height="7.88121" transform="matrix(0.866025 0.5 -0.866025 0.5 72.7437 240.08)" fill="#F1DDB5"/>
<rect width="4.6906" height="140.8" transform="matrix(0.866025 0.5 -0.866025 0.5 320.916 171.938)" fill="white"/>
<rect width="4.6906" height="140.8" transform="matrix(0.866025 0.5 -0.866025 0.5 414.916 225.938)" fill="white"/>
<rect width="4.6906" height="140.8" transform="matrix(0.866025 0.5 -0.866025 0.5 372.916 201.938)" fill="white"/>
<rect width="4.6906" height="140.8" transform="matrix(0.866025 0.5 -0.866025 0.5 278.916 150.938)" fill="white"/>
<rect width="8.0829" height="8.75597" transform="matrix(0.866025 -0.5 2.20305e-08 1 204.672 324.182)" fill="#D1BD8E"/>
<rect width="593.102" height="65.3124" transform="matrix(0.866025 0.5 -0.866025 0.5 63.5962 253.045)" fill="#8B8C90"/>
<rect width="592.977" height="3.87451" transform="matrix(0.866025 0.5 -0.866025 0.5 28.8452 273.115)" fill="#FFE500"/>
<rect width="593.255" height="3.87451" transform="matrix(0.866025 0.5 -0.866025 0.5 36.27 268.632)" fill="#FFE500"/>
<rect width="592.717" height="10.7088" transform="matrix(0.866025 0.5 -0.866025 0.5 9.37427 284.529)" fill="#BEBEBE"/>
<rect width="228.631" height="6.23354" transform="matrix(0.866025 -0.5 2.20305e-08 1 291.671 371.253)" fill="#CAC18A"/>
<rect width="7.02249" height="234.667" transform="matrix(0.866025 0.5 -0.866025 0.5 482.287 254.938)" fill="#F1DDB5"/>
<rect width="9.2376" height="6.83089" transform="matrix(0.866025 -0.5 2.20305e-08 1 575.671 543.839)" fill="#C9BF8E"/>
<rect width="342.147" height="7.14102" transform="matrix(0.866025 0.5 -2.20305e-08 1 279.671 372.605)" fill="#CEC292"/>
<rect width="342.949" height="8.97787" transform="matrix(0.866025 0.5 -0.866025 0.5 286.77 367.763)" fill="#F1DDB5"/>
<rect width="598.125" height="29.1272" transform="matrix(0.866025 0.5 -0.866025 0.5 386.56 62.6404)" fill="#BABABA"/>
<path d="M896.671 358.938L875.171 372.438M873.671 346.438L852.671 358.938M853.671 333.938L832.671 346.438M835.671 321.438L814.671 333.938M814.171 308.938L793.171 321.438M791.671 298.938L770.671 311.438M428.671 86.9379L407.671 99.4379M403.171 72.4379L382.171 84.9379" stroke="#ACACAC"/>
<rect width="597.486" height="3.08995" transform="matrix(0.866025 0.5 -2.20305e-08 1 361.671 74.4775)" fill="#949597"/>
<rect width="3.4641" height="3" transform="matrix(0.866025 -0.5 2.20305e-08 1 879.11 373.334)" fill="#7F7E8C"/>
<rect width="597.567" height="3.38839" transform="matrix(0.866025 0.5 -0.866025 0.5 364.591 72.8263)" fill="#D9D9D9"/>
<rect width="598.135" height="3.08995" transform="matrix(0.866025 0.5 -2.20305e-08 1 384.671 60.6544)" fill="#949597"/>
<rect width="2.3094" height="3.08995" transform="matrix(0.866025 -0.5 2.20305e-08 1 902.671 359.644)" fill="#7F7E8C"/>
<rect width="598.276" height="2.53646" transform="matrix(0.866025 0.5 -0.866025 0.5 386.649 59.5652)" fill="#D5D5D7"/>
<rect width="64.6632" height="185" transform="matrix(0.866025 -0.5 2.20305e-08 1 613.671 221.444)" fill="url(#paint9_linear_204_575)"/>
<rect width="53.1162" height="103.996" transform="matrix(0.866025 -0.5 2.20305e-08 1 616.672 303.496)" fill="#F4F4F4"/>
<rect width="2.8453" height="109.826" transform="matrix(0.866025 -0.5 2.20305e-08 1 613.672 301.535)" fill="#FAFEFB"/>
<rect width="2.3094" height="109.265" transform="matrix(0.866025 0.5 -2.20305e-08 1 611.672 300.938)" fill="#7C7875"/>
<rect width="2.3094" height="105.923" transform="matrix(0.866025 0.5 -2.20305e-08 1 662.672 274.938)" fill="#7C7875"/>
<rect width="62.3538" height="3.59045" transform="matrix(0.866025 -0.5 2.20305e-08 1 613.672 301.535)" fill="#FAFEFB"/>
<rect width="62.5593" height="2.40014" transform="matrix(0.866025 -0.5 0.866025 0.5 611.524 300.812)" fill="#7C7875"/>
<rect width="3.4641" height="109.674" transform="matrix(0.866025 -0.5 2.20305e-08 1 664.672 272.512)" fill="#FAFEFB"/>
<rect width="46.188" height="185" transform="matrix(0.866025 -0.5 2.20305e-08 1 573.671 257.35)" fill="#D9C99F"/>
<rect width="165.122" height="182.794" transform="matrix(0.866025 0.5 -2.20305e-08 1 430.671 176.35)" fill="#E9D8AC"/>
<rect width="51.9615" height="180.412" transform="matrix(0.866025 0.5 -2.20305e-08 1 387.671 143.938)" fill="url(#paint10_linear_204_575)"/>
<rect width="19.6299" height="185" transform="matrix(0.866025 0.5 -2.20305e-08 1 667.671 189.629)" fill="#C1B28A"/>
<rect width="109.697" height="185" transform="matrix(0.866025 -0.5 2.20305e-08 1 684.671 199.681)" fill="#E9D8AC"/>
<rect width="163.967" height="12.0309" transform="matrix(0.866025 0.5 -2.20305e-08 1 430.671 348.812)" fill="#404457"/>
<rect width="51.9615" height="12.27" transform="matrix(0.866025 0.5 -2.20305e-08 1 386.671 314.132)" fill="#404457"/>
<rect width="47.3427" height="12.27" transform="matrix(0.866025 -0.5 2.20305e-08 1 572.671 430.609)" fill="#404457"/>
<rect width="112.006" height="12.27" transform="matrix(0.866025 -0.5 2.20305e-08 1 682.671 373.609)" fill="#404457"/>
<rect width="17.3205" height="12.27" transform="matrix(0.866025 0.5 -2.20305e-08 1 667.671 364.515)" fill="#404457"/>
<rect width="8" height="9" transform="matrix(0.866025 0.5 -2.20305e-08 1 537.671 287.934)" fill="#DBDADF"/>
<path d="M537.671 287.934L544.6 291.934L572.671 262.934L565.743 258.934L537.671 287.934Z" fill="#FFF7FF"/>
<path d="M523.671 280.141L530.6 284.141L558.671 255.141L551.743 251.141L523.671 280.141Z" fill="#FFF7FF"/>
<path d="M509.671 272.141L516.6 276.141L544.671 247.141L537.743 243.141L509.671 272.141Z" fill="#FFF7FF"/>
<path d="M495.671 264.141L502.6 268.141L530.671 238.388L523.743 234.388L495.671 264.141Z" fill="#FFF7FF"/>
<path d="M480.671 256.316L487.995 260.545L517.671 230.716L510.347 226.487L480.671 256.316Z" fill="#FFF7FF"/>
<path d="M544.671 291.686L572.671 262.847L572.671 272.094L544.671 300.934L544.671 291.686Z" fill="#B20205"/>
<rect width="8" height="9" transform="matrix(0.866025 0.5 -2.20305e-08 1 509.671 271.934)" fill="#DBDADF"/>
<rect width="8" height="9" transform="matrix(0.866025 0.5 -2.20305e-08 1 481.671 255.934)" fill="#DBDADF"/>
<rect width="6.9282" height="9" transform="matrix(0.866025 0.5 -2.20305e-08 1 453.671 239.934)" fill="#DBDADF"/>
<path d="M453.671 239.934L459.671 243.398L487.671 213.434L481.671 209.97L453.671 239.934Z" fill="#FFF7FF"/>
<rect width="8" height="9" transform="matrix(0.866025 0.5 -2.20305e-08 1 423.671 222.934)" fill="#DBDADF"/>
<path d="M423.671 222.934L430.6 226.934L459.171 196.434L452.243 192.434L423.671 222.934Z" fill="#FFF7FF"/>
<rect width="8" height="9" transform="matrix(0.866025 0.5 -2.20305e-08 1 523.671 279.934)" fill="#DBDADF"/>
<rect width="8" height="9" transform="matrix(0.866025 0.5 -2.20305e-08 1 495.671 263.934)" fill="#DBDADF"/>
<rect width="9.2376" height="9" transform="matrix(0.866025 0.5 -2.20305e-08 1 437.671 230.779)" fill="#DBDADF"/>
<path d="M437.671 230.779L445.671 235.398L474.171 205.053L466.171 200.434L437.671 230.779Z" fill="#FFF7FF"/>
<rect width="8" height="9" transform="matrix(0.866025 0.5 -2.20305e-08 1 409.671 214.934)" fill="#DBDADF"/>
<path d="M409.671 214.934L416.6 218.934L445.1 188.434L438.171 184.434L409.671 214.934Z" fill="#FFF7FF"/>
<rect width="8" height="9" transform="matrix(0.866025 0.5 -2.20305e-08 1 530.671 283.934)" fill="#B80000"/>
<path d="M530.671 283.934L537.6 287.934L565.671 258.934L558.171 254.434L530.671 283.934Z" fill="#E00F0B"/>
<path d="M516.671 276.311L523.6 280.311L551.671 251.311L544.171 246.434L516.671 276.311Z" fill="#E00F0B"/>
<path d="M502.671 267.688L509.798 271.802L538.671 243.265L530.957 238.264L502.671 267.688Z" fill="#E00F0B"/>
<path d="M488.671 260.272L495.6 264.272L523.671 234.695L516.171 229.811L488.671 260.272Z" fill="#E00F0B"/>
<path d="M473.671 252.064L480.798 256.178L509.671 226.699L501.957 221.687L473.671 252.064Z" fill="#E00F0B"/>
<rect width="8" height="9" transform="matrix(0.866025 0.5 -2.20305e-08 1 467.671 247.934)" fill="#DBDADF"/>
<path d="M467.671 247.934L474.6 251.934L502.671 221.934L495.743 217.934L467.671 247.934Z" fill="#FFF7FF"/>
<rect width="8" height="9" transform="matrix(0.866025 0.5 -2.20305e-08 1 502.671 267.934)" fill="#B80000"/>
<rect width="8.0829" height="9" transform="matrix(0.866025 0.5 -2.20305e-08 1 474.671 251.934)" fill="#B80000"/>
<rect width="9.1547" height="9" transform="matrix(0.866025 0.5 -2.20305e-08 1 445.671 235.356)" fill="#B80000"/>
<path d="M445.671 235.356L453.6 239.934L481.671 209.934L473.743 205.356L445.671 235.356Z" fill="#E00F0B"/>
<rect width="8" height="9" transform="matrix(0.866025 0.5 -2.20305e-08 1 416.671 218.934)" fill="#B80000"/>
<path d="M416.671 218.934L423.6 222.934L452.171 192.434L445.243 188.434L416.671 218.934Z" fill="#E00F0B"/>
<rect width="8" height="9" transform="matrix(0.866025 0.5 -2.20305e-08 1 516.671 275.934)" fill="#B80000"/>
<rect width="8" height="9" transform="matrix(0.866025 0.5 -2.20305e-08 1 488.671 259.934)" fill="#B80000"/>
<rect width="9.1547" height="9" transform="matrix(0.866025 0.5 -2.20305e-08 1 459.671 243.356)" fill="#B80000"/>
<path d="M459.671 243.356L467.6 247.934L495.671 217.934L487.743 213.356L459.671 243.356Z" fill="#E00F0B"/>
<rect width="8" height="9" transform="matrix(0.866025 0.5 -2.20305e-08 1 430.671 226.934)" fill="#B80000"/>
<path d="M430.671 226.934L437.6 230.934L466.1 200.434L459.171 196.434L430.671 226.934Z" fill="#E00F0B"/>
<rect width="8" height="9" transform="matrix(0.866025 0.5 -2.20305e-08 1 402.671 210.934)" fill="#B80000"/>
<path d="M402.671 210.934L409.6 214.934L438.171 184.434L431.243 180.434L402.671 210.934Z" fill="#E00F0B"/>
<path d="M390.671 141.438L546.671 48.9377L679.671 121.438L715.671 101.938L774.171 141.438L685.671 198.438L668.671 187.438L599.171 226.938L610.671 234.938L570.671 255.438L432.171 178.938L440.671 169.938L390.671 141.438Z" fill="#F9F5EA"/>
<path d="M576.672 137.278L620.672 162.681L649.672 146.341L605.672 120.938L576.672 137.278Z" fill="#C5C6C8"/>
<rect width="33.4863" height="5.26265" transform="matrix(0.866025 -0.5 2.20305e-08 1 620.671 162.675)" fill="#81848B"/>
<rect width="50.8068" height="5" transform="matrix(0.866025 0.5 -2.20305e-08 1 576.671 137.278)" fill="#3F4042"/>
<mask id="mask0_204_575" style="mask-type:alpha" maskUnits="userSpaceOnUse" x="610" y="139" width="29" height="18">
<path d="M638.171 148.438C638.171 150.543 636.764 152.532 634.311 154.021C631.868 155.504 628.461 156.438 624.671 156.438C620.881 156.438 617.474 155.504 615.031 154.021C612.579 152.532 611.171 150.543 611.171 148.438C611.171 146.332 612.579 144.344 615.031 142.855C617.474 141.371 620.881 140.438 624.671 140.438C628.461 140.438 631.868 141.371 634.311 142.855C636.764 144.344 638.171 146.332 638.171 148.438Z" fill="#303135" stroke="#EEEEF1"/>
</mask>
<g mask="url(#mask0_204_575)">
<path d="M638.171 148.438C638.171 150.543 636.764 152.532 634.311 154.021C631.868 155.504 628.461 156.438 624.671 156.438C620.881 156.438 617.474 155.504 615.031 154.021C612.579 152.532 611.171 150.543 611.171 148.438C611.171 146.332 612.579 144.344 615.031 142.855C617.474 141.371 620.881 140.438 624.671 140.438C628.461 140.438 631.868 141.371 634.311 142.855C636.764 144.344 638.171 146.332 638.171 148.438Z" fill="#303135" stroke="#EEEEF1"/>
<path d="M611.171 150.438L638.671 147.438M613.171 144.438L636.171 152.438M617.671 141.938L632.671 155.438M624.171 140.438L625.171 156.938M630.671 141.938L619.171 155.438M634.671 143.438L614.171 154.938" stroke="#646569"/>
<path d="M638.171 148.438C638.171 150.543 636.764 152.532 634.311 154.021C631.868 155.504 628.461 156.438 624.671 156.438C620.881 156.438 617.474 155.504 615.031 154.021C612.579 152.532 611.171 150.543 611.171 148.438C611.171 146.332 612.579 144.344 615.031 142.855C617.474 141.371 620.881 140.438 624.671 140.438C628.461 140.438 631.868 141.371 634.311 142.855C636.764 144.344 638.171 146.332 638.171 148.438Z" stroke="#EEEEF1"/>
<ellipse cx="624.671" cy="148.438" rx="3" ry="2.5" fill="#D9D9D9"/>
</g>
<mask id="mask1_204_575" style="mask-type:alpha" maskUnits="userSpaceOnUse" x="589" y="126" width="29" height="18">
<path d="M617.171 135.438C617.171 137.543 615.764 139.532 613.311 141.021C610.868 142.504 607.461 143.438 603.671 143.438C599.881 143.438 596.474 142.504 594.031 141.021C591.579 139.532 590.171 137.543 590.171 135.438C590.171 133.332 591.579 131.344 594.031 129.855C596.474 128.371 599.881 127.438 603.671 127.438C607.461 127.438 610.868 128.371 613.311 129.855C615.764 131.344 617.171 133.332 617.171 135.438Z" fill="#303135" stroke="#EEEEF1"/>
</mask>
<g mask="url(#mask1_204_575)">
<path d="M617.171 135.438C617.171 137.543 615.764 139.532 613.311 141.021C610.868 142.504 607.461 143.438 603.671 143.438C599.881 143.438 596.474 142.504 594.031 141.021C591.579 139.532 590.171 137.543 590.171 135.438C590.171 133.332 591.579 131.344 594.031 129.855C596.474 128.371 599.881 127.438 603.671 127.438C607.461 127.438 610.868 128.371 613.311 129.855C615.764 131.344 617.171 133.332 617.171 135.438Z" fill="#303135" stroke="#EEEEF1"/>
<path d="M590.171 137.438L617.671 134.438M592.171 131.438L615.171 139.438M596.671 128.938L611.671 142.438M603.171 127.438L604.171 143.938M609.671 128.938L598.171 142.438M613.671 130.438L593.171 141.938" stroke="#646569"/>
<path d="M617.171 135.438C617.171 137.543 615.764 139.532 613.311 141.021C610.868 142.504 607.461 143.438 603.671 143.438C599.881 143.438 596.474 142.504 594.031 141.021C591.579 139.532 590.171 137.543 590.171 135.438C590.171 133.332 591.579 131.344 594.031 129.855C596.474 128.371 599.881 127.438 603.671 127.438C607.461 127.438 610.868 128.371 613.311 129.855C615.764 131.344 617.171 133.332 617.171 135.438Z" stroke="#EEEEF1"/>
<ellipse cx="603.671" cy="135.438" rx="3" ry="2.5" fill="#D9D9D9"/>
</g>
<path d="M526.672 164.479L570.672 189.883L599.672 173.543L555.672 148.139L526.672 164.479Z" fill="#C5C6C8"/>
<rect width="33.4863" height="5.26265" transform="matrix(0.866025 -0.5 2.20305e-08 1 570.671 189.877)" fill="#81848B"/>
<rect width="50.8068" height="5" transform="matrix(0.866025 0.5 -2.20305e-08 1 526.671 164.479)" fill="#3F4042"/>
<mask id="mask2_204_575" style="mask-type:alpha" maskUnits="userSpaceOnUse" x="560" y="167" width="29" height="18">
<path d="M588.171 175.639C588.171 177.745 586.764 179.734 584.311 181.222C581.868 182.706 578.461 183.639 574.671 183.639C570.881 183.639 567.474 182.706 565.031 181.222C562.579 179.734 561.171 177.745 561.171 175.639C561.171 173.534 562.579 171.545 565.031 170.056C567.474 168.573 570.881 167.639 574.671 167.639C578.461 167.639 581.868 168.573 584.311 170.056C586.764 171.545 588.171 173.534 588.171 175.639Z" fill="#303135" stroke="#EEEEF1"/>
</mask>
<g mask="url(#mask2_204_575)">
<path d="M588.171 175.639C588.171 177.745 586.764 179.734 584.311 181.222C581.868 182.706 578.461 183.639 574.671 183.639C570.881 183.639 567.474 182.706 565.031 181.222C562.579 179.734 561.171 177.745 561.171 175.639C561.171 173.534 562.579 171.545 565.031 170.056C567.474 168.573 570.881 167.639 574.671 167.639C578.461 167.639 581.868 168.573 584.311 170.056C586.764 171.545 588.171 173.534 588.171 175.639Z" fill="#303135" stroke="#EEEEF1"/>
<path d="M561.171 177.639L588.671 174.639M563.171 171.639L586.171 179.639M567.671 169.139L582.671 182.639M574.171 167.639L575.171 184.139M580.671 169.139L569.171 182.639M584.671 170.639L564.171 182.139" stroke="#646569"/>
<path d="M588.171 175.639C588.171 177.745 586.764 179.734 584.311 181.222C581.868 182.706 578.461 183.639 574.671 183.639C570.881 183.639 567.474 182.706 565.031 181.222C562.579 179.734 561.171 177.745 561.171 175.639C561.171 173.534 562.579 171.545 565.031 170.056C567.474 168.573 570.881 167.639 574.671 167.639C578.461 167.639 581.868 168.573 584.311 170.056C586.764 171.545 588.171 173.534 588.171 175.639Z" stroke="#EEEEF1"/>
<ellipse cx="574.671" cy="175.639" rx="3" ry="2.5" fill="#D9D9D9"/>
</g>
<mask id="mask3_204_575" style="mask-type:alpha" maskUnits="userSpaceOnUse" x="539" y="154" width="29" height="18">
<path d="M567.171 162.639C567.171 164.745 565.764 166.734 563.311 168.222C560.868 169.706 557.461 170.639 553.671 170.639C549.881 170.639 546.474 169.706 544.031 168.222C541.579 166.734 540.171 164.745 540.171 162.639C540.171 160.534 541.579 158.545 544.031 157.056C546.474 155.573 549.881 154.639 553.671 154.639C557.461 154.639 560.868 155.573 563.311 157.056C565.764 158.545 567.171 160.534 567.171 162.639Z" fill="#303135" stroke="#EEEEF1"/>
</mask>
<g mask="url(#mask3_204_575)">
<path d="M567.171 162.639C567.171 164.745 565.764 166.734 563.311 168.222C560.868 169.706 557.461 170.639 553.671 170.639C549.881 170.639 546.474 169.706 544.031 168.222C541.579 166.734 540.171 164.745 540.171 162.639C540.171 160.534 541.579 158.545 544.031 157.056C546.474 155.573 549.881 154.639 553.671 154.639C557.461 154.639 560.868 155.573 563.311 157.056C565.764 158.545 567.171 160.534 567.171 162.639Z" fill="#303135" stroke="#EEEEF1"/>
<path d="M540.171 164.639L567.671 161.639M542.171 158.639L565.171 166.639M546.671 156.139L561.671 169.639M553.171 154.639L554.171 171.139M559.671 156.139L548.171 169.639M563.671 157.639L543.171 169.139" stroke="#646569"/>
<path d="M567.171 162.639C567.171 164.745 565.764 166.734 563.311 168.222C560.868 169.706 557.461 170.639 553.671 170.639C549.881 170.639 546.474 169.706 544.031 168.222C541.579 166.734 540.171 164.745 540.171 162.639C540.171 160.534 541.579 158.545 544.031 157.056C546.474 155.573 549.881 154.639 553.671 154.639C557.461 154.639 560.868 155.573 563.311 157.056C565.764 158.545 567.171 160.534 567.171 162.639Z" stroke="#EEEEF1"/>
<ellipse cx="553.671" cy="162.639" rx="3" ry="2.5" fill="#D9D9D9"/>
</g>
<path d="M463.672 124.479L507.672 149.883L536.672 133.543L492.672 108.139L463.672 124.479Z" fill="#C5C6C8"/>
<rect width="33.4863" height="5.26265" transform="matrix(0.866025 -0.5 2.20305e-08 1 507.671 149.877)" fill="#81848B"/>
<rect width="50.8068" height="5" transform="matrix(0.866025 0.5 -2.20305e-08 1 463.671 124.479)" fill="#3F4042"/>
<mask id="mask4_204_575" style="mask-type:alpha" maskUnits="userSpaceOnUse" x="497" y="127" width="29" height="18">
<path d="M525.171 135.639C525.171 137.745 523.764 139.734 521.311 141.222C518.868 142.706 515.461 143.639 511.671 143.639C507.881 143.639 504.474 142.706 502.031 141.222C499.579 139.734 498.171 137.745 498.171 135.639C498.171 133.534 499.579 131.545 502.031 130.056C504.474 128.573 507.881 127.639 511.671 127.639C515.461 127.639 518.868 128.573 521.311 130.056C523.764 131.545 525.171 133.534 525.171 135.639Z" fill="#303135" stroke="#EEEEF1"/>
</mask>
<g mask="url(#mask4_204_575)">
<path d="M525.171 135.639C525.171 137.745 523.764 139.734 521.311 141.222C518.868 142.706 515.461 143.639 511.671 143.639C507.881 143.639 504.474 142.706 502.031 141.222C499.579 139.734 498.171 137.745 498.171 135.639C498.171 133.534 499.579 131.545 502.031 130.056C504.474 128.573 507.881 127.639 511.671 127.639C515.461 127.639 518.868 128.573 521.311 130.056C523.764 131.545 525.171 133.534 525.171 135.639Z" fill="#303135" stroke="#EEEEF1"/>
<path d="M498.171 137.639L525.671 134.639M500.171 131.639L523.171 139.639M504.671 129.139L519.671 142.639M511.171 127.639L512.171 144.139M517.671 129.139L506.171 142.639M521.671 130.639L501.171 142.139" stroke="#646569"/>
<path d="M525.171 135.639C525.171 137.745 523.764 139.734 521.311 141.222C518.868 142.706 515.461 143.639 511.671 143.639C507.881 143.639 504.474 142.706 502.031 141.222C499.579 139.734 498.171 137.745 498.171 135.639C498.171 133.534 499.579 131.545 502.031 130.056C504.474 128.573 507.881 127.639 511.671 127.639C515.461 127.639 518.868 128.573 521.311 130.056C523.764 131.545 525.171 133.534 525.171 135.639Z" stroke="#EEEEF1"/>
<ellipse cx="511.671" cy="135.639" rx="3" ry="2.5" fill="#D9D9D9"/>
</g>
<mask id="mask5_204_575" style="mask-type:alpha" maskUnits="userSpaceOnUse" x="476" y="114" width="29" height="18">
<path d="M504.171 122.639C504.171 124.745 502.764 126.734 500.311 128.222C497.868 129.706 494.461 130.639 490.671 130.639C486.881 130.639 483.474 129.706 481.031 128.222C478.579 126.734 477.171 124.745 477.171 122.639C477.171 120.534 478.579 118.545 481.031 117.056C483.474 115.573 486.881 114.639 490.671 114.639C494.461 114.639 497.868 115.573 500.311 117.056C502.764 118.545 504.171 120.534 504.171 122.639Z" fill="#303135" stroke="#EEEEF1"/>
</mask>
<g mask="url(#mask5_204_575)">
<path d="M504.171 122.639C504.171 124.745 502.764 126.734 500.311 128.222C497.868 129.706 494.461 130.639 490.671 130.639C486.881 130.639 483.474 129.706 481.031 128.222C478.579 126.734 477.171 124.745 477.171 122.639C477.171 120.534 478.579 118.545 481.031 117.056C483.474 115.573 486.881 114.639 490.671 114.639C494.461 114.639 497.868 115.573 500.311 117.056C502.764 118.545 504.171 120.534 504.171 122.639Z" fill="#303135" stroke="#EEEEF1"/>
<path d="M477.171 124.639L504.671 121.639M479.171 118.639L502.171 126.639M483.671 116.139L498.671 129.639M490.171 114.639L491.171 131.139M496.671 116.139L485.171 129.639M500.671 117.639L480.171 129.139" stroke="#646569"/>
<path d="M504.171 122.639C504.171 124.745 502.764 126.734 500.311 128.222C497.868 129.706 494.461 130.639 490.671 130.639C486.881 130.639 483.474 129.706 481.031 128.222C478.579 126.734 477.171 124.745 477.171 122.639C477.171 120.534 478.579 118.545 481.031 117.056C483.474 115.573 486.881 114.639 490.671 114.639C494.461 114.639 497.868 115.573 500.311 117.056C502.764 118.545 504.171 120.534 504.171 122.639Z" stroke="#EEEEF1"/>
<ellipse cx="490.671" cy="122.639" rx="3" ry="2.5" fill="#D9D9D9"/>
</g>
<path d="M513.672 97.4792L557.672 122.883L586.672 106.543L542.672 81.1395L513.672 97.4792Z" fill="#C5C6C8"/>
<rect width="33.4863" height="5.26265" transform="matrix(0.866025 -0.5 2.20305e-08 1 557.671 122.877)" fill="#81848B"/>
<rect width="50.8068" height="5" transform="matrix(0.866025 0.5 -2.20305e-08 1 513.671 97.4792)" fill="#3F4042"/>
<mask id="mask6_204_575" style="mask-type:alpha" maskUnits="userSpaceOnUse" x="547" y="100" width="29" height="18">
<path d="M575.171 108.639C575.171 110.745 573.764 112.734 571.311 114.222C568.868 115.706 565.461 116.639 561.671 116.639C557.881 116.639 554.474 115.706 552.031 114.222C549.579 112.734 548.171 110.745 548.171 108.639C548.171 106.534 549.579 104.545 552.031 103.056C554.474 101.573 557.881 100.639 561.671 100.639C565.461 100.639 568.868 101.573 571.311 103.056C573.764 104.545 575.171 106.534 575.171 108.639Z" fill="#303135" stroke="#EEEEF1"/>
</mask>
<g mask="url(#mask6_204_575)">
<path d="M575.171 108.639C575.171 110.745 573.764 112.734 571.311 114.222C568.868 115.706 565.461 116.639 561.671 116.639C557.881 116.639 554.474 115.706 552.031 114.222C549.579 112.734 548.171 110.745 548.171 108.639C548.171 106.534 549.579 104.545 552.031 103.056C554.474 101.573 557.881 100.639 561.671 100.639C565.461 100.639 568.868 101.573 571.311 103.056C573.764 104.545 575.171 106.534 575.171 108.639Z" fill="#303135" stroke="#EEEEF1"/>
<path d="M548.171 110.639L575.671 107.639M550.171 104.639L573.171 112.639M554.671 102.139L569.671 115.639M561.171 100.639L562.171 117.139M567.671 102.139L556.171 115.639M571.671 103.639L551.171 115.139" stroke="#646569"/>
<path d="M575.171 108.639C575.171 110.745 573.764 112.734 571.311 114.222C568.868 115.706 565.461 116.639 561.671 116.639C557.881 116.639 554.474 115.706 552.031 114.222C549.579 112.734 548.171 110.745 548.171 108.639C548.171 106.534 549.579 104.545 552.031 103.056C554.474 101.573 557.881 100.639 561.671 100.639C565.461 100.639 568.868 101.573 571.311 103.056C573.764 104.545 575.171 106.534 575.171 108.639Z" stroke="#EEEEF1"/>
<ellipse cx="561.671" cy="108.639" rx="3" ry="2.5" fill="#D9D9D9"/>
</g>
<mask id="mask7_204_575" style="mask-type:alpha" maskUnits="userSpaceOnUse" x="526" y="87" width="29" height="18">
<path d="M554.171 95.6394C554.171 97.7449 552.764 99.7336 550.311 101.222C547.868 102.706 544.461 103.639 540.671 103.639C536.881 103.639 533.474 102.706 531.031 101.222C528.579 99.7336 527.171 97.7449 527.171 95.6394C527.171 93.5339 528.579 91.5452 531.031 90.0564C533.474 88.5731 536.881 87.6394 540.671 87.6394C544.461 87.6394 547.868 88.5731 550.311 90.0564C552.764 91.5452 554.171 93.5339 554.171 95.6394Z" fill="#303135" stroke="#EEEEF1"/>
</mask>
<g mask="url(#mask7_204_575)">
<path d="M554.171 95.6394C554.171 97.7449 552.764 99.7336 550.311 101.222C547.868 102.706 544.461 103.639 540.671 103.639C536.881 103.639 533.474 102.706 531.031 101.222C528.579 99.7336 527.171 97.7449 527.171 95.6394C527.171 93.5339 528.579 91.5452 531.031 90.0564C533.474 88.5731 536.881 87.6394 540.671 87.6394C544.461 87.6394 547.868 88.5731 550.311 90.0564C552.764 91.5452 554.171 93.5339 554.171 95.6394Z" fill="#303135" stroke="#EEEEF1"/>
<path d="M527.171 97.6394L554.671 94.6394M529.171 91.6394L552.171 99.6394M533.671 89.1394L548.671 102.639M540.171 87.6394L541.171 104.139M546.671 89.1394L535.171 102.639M550.671 90.6394L530.171 102.139" stroke="#646569"/>
<path d="M554.171 95.6394C554.171 97.7449 552.764 99.7336 550.311 101.222C547.868 102.706 544.461 103.639 540.671 103.639C536.881 103.639 533.474 102.706 531.031 101.222C528.579 99.7336 527.171 97.7449 527.171 95.6394C527.171 93.5339 528.579 91.5452 531.031 90.0564C533.474 88.5731 536.881 87.6394 540.671 87.6394C544.461 87.6394 547.868 88.5731 550.311 90.0564C552.764 91.5452 554.171 93.5339 554.171 95.6394Z" stroke="#EEEEF1"/>
<ellipse cx="540.671" cy="95.6394" rx="3" ry="2.5" fill="#D9D9D9"/>
</g>
<rect width="10.3923" height="8" transform="matrix(0.866025 -0.5 2.20305e-08 1 711.671 234.392)" fill="#BE0108"/>
<path d="M711.671 234.392L720.671 229.196L692.671 197.892L683.671 203.088L711.671 234.392Z" fill="#E80608"/>
<path d="M684.171 202.892L711.671 234.588L711.671 242.588L684.171 213.392L684.171 202.892Z" fill="#C1070C"/>
<rect width="8.0829" height="8" transform="matrix(0.866025 -0.5 2.20305e-08 1 720.671 229.434)" fill="#DBDEE3"/>
<path d="M720.671 229.434L727.671 225.392L699.171 193.392L692.171 197.434L720.671 229.434Z" fill="#F2FBF8"/>
<rect width="9.2376" height="8" transform="matrix(0.866025 -0.5 2.20305e-08 1 727.671 225.011)" fill="#BE0108"/>
<path d="M727.671 225.011L735.671 220.392L707.171 188.773L699.171 193.392L727.671 225.011Z" fill="#E10A08"/>
<rect width="6.9282" height="8" transform="matrix(0.866025 -0.5 2.20305e-08 1 735.671 220.588)" fill="#DBDEE3"/>
<path d="M735.671 220.588L741.671 217.124L713.171 185.392L707.171 188.856L735.671 220.588Z" fill="#F2FBF8"/>
<rect width="9.2376" height="8" transform="matrix(0.866025 -0.5 2.20305e-08 1 741.671 216.856)" fill="#BE0108"/>
<path d="M741.671 216.856L749.671 212.238L721.171 180.773L713.171 185.392L741.671 216.856Z" fill="#E10A08"/>
<rect width="6.9282" height="8" transform="matrix(0.866025 -0.5 2.20305e-08 1 749.671 212.011)" fill="#DBDEE3"/>
<path d="M749.671 212.011L755.671 208.547L727.171 177.392L721.171 180.856L749.671 212.011Z" fill="#F2FBF8"/>
<rect width="9.2376" height="8" transform="matrix(0.866025 -0.5 2.20305e-08 1 755.671 208.856)" fill="#BE0108"/>
<path d="M755.671 208.856L763.671 204.238L735.171 172.773L727.171 177.392L755.671 208.856Z" fill="#E10A08"/>
<rect width="9.2376" height="8" transform="matrix(0.866025 -0.5 2.20305e-08 1 763.671 203.856)" fill="#DBDEE3"/>
<path d="M763.671 203.856L771.671 199.238L743.171 168.273L735.171 172.892L763.671 203.856Z" fill="#F2FBF8"/>
<rect width="8.0829" height="8" transform="matrix(0.866025 -0.5 2.20305e-08 1 771.671 199.011)" fill="#BE0108"/>
<path d="M771.671 199.011L778.671 194.97L750.171 164.351L743.171 168.392L771.671 199.011Z" fill="#E10A08"/>
<rect width="8.0829" height="8" transform="matrix(0.866025 -0.5 2.20305e-08 1 778.671 194.434)" fill="#DBDEE3"/>
<path d="M778.671 194.434L785.671 190.392L757.171 160.392L750.171 164.434L778.671 194.434Z" fill="#F2FBF8"/>
<rect width="8.0829" height="8" transform="matrix(0.866025 -0.5 2.20305e-08 1 785.671 189.856)" fill="#BE0108"/>
<path d="M785.671 189.856L792.671 185.815L764.171 156.351L757.171 160.392L785.671 189.856Z" fill="#E10A08"/>
<rect width="8.0829" height="8" transform="matrix(0.866025 -0.5 2.20305e-08 1 792.671 186.279)" fill="#DBDEE3"/>
<path d="M792.671 186.279L799.671 182.238L771.671 151.892L764.671 155.934L792.671 186.279Z" fill="#F2FBF8"/>
<rect width="9.2376" height="8" transform="matrix(0.866025 -0.5 2.20305e-08 1 799.671 182.279)" fill="#BE0108"/>
<path d="M799.671 182.279L807.671 177.892L779.171 147.392L771.671 151.934L799.671 182.279Z" fill="#E10A08"/>
<path d="M596.671 221.609L667.671 181.938L667.671 196.469L596.671 236.141L596.671 221.609Z" fill="#394A58"/>
<path d="M596.671 221.438L615.671 226.021L615.671 238.28L596.671 233.697L596.671 221.438Z" fill="#31404D"/>
<rect width="49.6521" height="12" transform="matrix(0.866025 -0.5 2.20305e-08 1 572.671 250.938)" fill="#394A58"/>
<rect width="154.73" height="16.7606" transform="matrix(0.866025 0.5 -2.20305e-08 1 545.671 36.004)" fill="#31404C"/>
<rect width="17.3205" height="14.5316" transform="matrix(0.866025 0.5 -2.20305e-08 1 667.671 181.938)" fill="#31404C"/>
<path d="M712.671 93.9155L781.671 133.753L779.171 149.438L712.671 110.808L712.671 93.9155Z" fill="#31404C"/>
<rect width="114.315" height="14.159" transform="matrix(0.866025 -0.5 2.20305e-08 1 682.671 191.095)" fill="#394A58"/>
<rect width="38.1051" height="17.0725" transform="matrix(0.866025 -0.5 2.20305e-08 1 679.671 113.077)" fill="#394A58"/>
<rect width="184.752" height="17.0725" transform="matrix(0.866025 -0.5 2.20305e-08 1 385.671 128.314)" fill="#394A58"/>
<rect width="66.9726" height="16.7606" transform="matrix(0.866025 0.5 -2.20305e-08 1 385.671 127.938)" fill="#31404C"/>
<path d="M426.671 166.938L443.671 161.184L443.671 178.01L434.671 182.449L426.671 166.938Z" fill="#394A58"/>
<rect width="168.586" height="12.0483" transform="matrix(0.866025 0.5 -2.20305e-08 1 426.671 166.843)" fill="#31404C"/>
<path d="M698.671 327.438L697.671 326.438L698.671 325.938V327.438Z" fill="#948358"/>
<path d="M765.171 216.438L764.171 215.438V216.938L765.171 216.438Z" fill="#948358"/>
<path d="M763.171 216.938L698.671 254.438V324.938L763.171 286.938V216.938Z" stroke="#948358" stroke-width="2"/>
<path d="M764.171 217.938L699.671 255.438V325.938L764.171 287.938V217.938Z" fill="#9ADBF1" stroke="#EFE6C9" stroke-width="2"/>
<mask id="mask8_204_575" style="mask-type:alpha" maskUnits="userSpaceOnUse" x="700" y="219" width="64" height="106">
<path d="M763.171 219.438L700.671 255.938V324.183L763.171 287.438V219.438Z" fill="#9ADBF1"/>
</mask>
<g mask="url(#mask8_204_575)">
<path d="M730.671 309.938L730.671 236.938" stroke="#6FB7C6" stroke-width="2"/>
<path d="M731.671 308.938L731.671 235.938" stroke="#EFE6C9" stroke-width="2"/>
</g>
<path d="M764.171 217.938L699.671 255.438V325.938L764.171 287.938V217.938Z" stroke="#EFE6C9" stroke-width="2"/>
<path d="M435.671 243.938L500.171 281.094V350.947L435.671 313.296V243.938Z" stroke="#948358" stroke-width="2"/>
<path d="M434.671 244.929L499.171 282.085V351.938L434.671 314.286V244.929Z" fill="#9ADBF1" stroke="#EFE6C9" stroke-width="2"/>
<mask id="mask9_204_575" style="mask-type:alpha" maskUnits="userSpaceOnUse" x="435" y="246" width="64" height="105">
<path d="M435.671 246.415L498.171 282.58V350.199L435.671 313.791V246.415Z" fill="#9ADBF1"/>
</mask>
<g mask="url(#mask9_204_575)">
<path d="M468.171 336.085L468.171 263.754" stroke="#6FB7C6" stroke-width="2"/>
<path d="M467.171 335.094L467.171 262.763" stroke="#EFE6C9" stroke-width="2"/>
</g>
<path d="M434.671 244.929L499.171 282.085V351.938L434.671 314.286V244.929Z" stroke="#EFE6C9" stroke-width="2"/>
<path d="M501.671 281.938L566.171 319.438V389.938L501.671 351.938V281.938Z" stroke="#948358" stroke-width="2"/>
<path d="M500.671 282.938L565.171 320.438V390.938L500.671 352.938V282.938Z" fill="#9ADBF1" stroke="#EFE6C9" stroke-width="2"/>
<mask id="mask10_204_575" style="mask-type:alpha" maskUnits="userSpaceOnUse" x="501" y="284" width="64" height="106">
<path d="M501.671 284.438L564.171 320.938V389.183L501.671 352.438V284.438Z" fill="#9ADBF1"/>
</mask>
<g mask="url(#mask10_204_575)">
<path d="M534.171 374.938L534.171 301.938" stroke="#6FB7C6" stroke-width="2"/>
<path d="M533.171 373.938L533.171 300.938" stroke="#EFE6C9" stroke-width="2"/>
</g>
<path d="M500.671 282.938L565.171 320.438V390.938L500.671 352.938V282.938Z" stroke="#EFE6C9" stroke-width="2"/>
<defs>
<radialGradient id="paint0_radial_204_575" cx="0" cy="0" r="1" gradientUnits="userSpaceOnUse" gradientTransform="translate(889.672 266.438) rotate(140.08) scale(31.9453 38.8708)">
<stop stop-color="#92BE42"/>
<stop offset="0.723633" stop-color="#699935"/>
</radialGradient>
<radialGradient id="paint1_radial_204_575" cx="0" cy="0" r="1" gradientUnits="userSpaceOnUse" gradientTransform="translate(867.281 294.385) rotate(140.685) scale(13.7683 16.686)">
<stop stop-color="#A7D94C"/>
<stop offset="0.723633" stop-color="#699935"/>
</radialGradient>
<radialGradient id="paint2_radial_204_575" cx="0" cy="0" r="1" gradientUnits="userSpaceOnUse" gradientTransform="translate(904.02 298.64) rotate(126.46) scale(14.0474 17.0242)">
<stop stop-color="#95C23F"/>
<stop offset="0.723633" stop-color="#699935"/>
</radialGradient>
<radialGradient id="paint3_radial_204_575" cx="0" cy="0" r="1" gradientUnits="userSpaceOnUse" gradientTransform="translate(796.672 212.438) rotate(140.08) scale(31.9453 38.8708)">
<stop stop-color="#92BE42"/>
<stop offset="0.723633" stop-color="#699935"/>
</radialGradient>
<radialGradient id="paint4_radial_204_575" cx="0" cy="0" r="1" gradientUnits="userSpaceOnUse" gradientTransform="translate(774.281 240.385) rotate(140.685) scale(13.7683 16.686)">
<stop stop-color="#A7D94C"/>
<stop offset="0.723633" stop-color="#699935"/>
</radialGradient>
<radialGradient id="paint5_radial_204_575" cx="0" cy="0" r="1" gradientUnits="userSpaceOnUse" gradientTransform="translate(811.02 244.64) rotate(126.46) scale(14.0474 17.0242)">
<stop stop-color="#95C23F"/>
<stop offset="0.723633" stop-color="#699935"/>
</radialGradient>
<radialGradient id="paint6_radial_204_575" cx="0" cy="0" r="1" gradientUnits="userSpaceOnUse" gradientTransform="translate(464.672 18.4377) rotate(140.08) scale(31.9453 38.8708)">
<stop stop-color="#92BE42"/>
<stop offset="0.723633" stop-color="#699935"/>
</radialGradient>
<radialGradient id="paint7_radial_204_575" cx="0" cy="0" r="1" gradientUnits="userSpaceOnUse" gradientTransform="translate(442.281 46.3846) rotate(140.685) scale(13.7683 16.686)">
<stop stop-color="#A7D94C"/>
<stop offset="0.723633" stop-color="#699935"/>
</radialGradient>
<radialGradient id="paint8_radial_204_575" cx="0" cy="0" r="1" gradientUnits="userSpaceOnUse" gradientTransform="translate(479.02 50.6399) rotate(126.46) scale(14.0474 17.0242)">
<stop stop-color="#95C23F"/>
<stop offset="0.723633" stop-color="#699935"/>
</radialGradient>
<linearGradient id="paint9_linear_204_575" x1="64.6632" y1="60.7376" x2="-4.77508" y2="62.6816" gradientUnits="userSpaceOnUse">
<stop stop-color="#E9D8AC"/>
<stop offset="1" stop-color="#C1B28A"/>
</linearGradient>
<linearGradient id="paint10_linear_204_575" x1="51.9615" y1="59.2313" x2="-3.85115" y2="60.5188" gradientUnits="userSpaceOnUse">
<stop stop-color="#C1B28A"/>
<stop offset="1" stop-color="#E9D8AC"/>
</linearGradient>
</defs>
</svg>
