<svg width="28" height="29" viewBox="0 0 28 29" fill="none" xmlns="http://www.w3.org/2000/svg">
<path d="M8.09317 3.05677L9.42748 9.72831C9.58 10.4909 9.23665 11.2671 8.56975 11.6672C7.77611 12.1434 7.45252 13.1415 7.88334 13.9607C10.2036 18.3724 13.2522 20.4559 15.1788 21.204C15.7906 21.4416 16.4587 21.2231 16.9227 20.759L17.8261 19.8557C18.3521 19.3296 19.1267 19.139 19.8368 19.361L25.2783 21.0614C26.1133 21.3223 26.72 22.108 26.5242 22.9606C25.6229 26.8852 21.0768 27.6497 18.6818 27.5C6.18176 26.5 2.68182 15 1.18182 9C0.241272 5.23782 3.13 2.86811 5.70713 1.69826C6.74693 1.22625 7.86922 1.93703 8.09317 3.05677Z" stroke="#CBB796" stroke-width="2" stroke-linecap="round"/>
</svg>
