<svg width="107" height="121" viewBox="0 0 107 121" fill="none" xmlns="http://www.w3.org/2000/svg">
<path d="M102.2 0.192322H4.64254C2.15398 0.192322 0.202933 2.32972 0.429311 4.80795L9.77597 107.129C9.94279 108.955 11.2672 110.466 13.0558 110.871L53.5222 120.024C54.1516 120.166 54.8053 120.163 55.4332 120.014L93.8276 110.895C95.5955 110.475 96.8979 108.973 97.0632 107.164L106.413 4.80795C106.639 2.32972 104.688 0.192322 102.2 0.192322Z" fill="#DB5C01"/>
<path d="M96.9199 5.48077H58.1807C55.8441 5.48077 53.95 7.37494 53.95 9.71153V109.165C53.95 111.866 56.4476 113.876 59.0865 113.297L89.5242 106.626C91.3285 106.231 92.6677 104.71 92.8323 102.87L101.134 10.0886C101.355 7.61304 99.4053 5.48077 96.9199 5.48077Z" fill="#F8A73F"/>
<path d="M56.2643 47.6027C61.7784 51.1058 65.6058 54.1223 67.7466 56.6523C69.8874 59.1174 70.9577 61.8421 70.9577 64.8262C70.9577 71.7026 67.5844 77.8329 60.8377 83.2173C54.0911 88.6017 43.2899 93.759 28.4343 98.6892L26.9747 94.0185C35.4729 90.9046 41.9276 88.1476 46.3389 85.7473C50.7502 83.4119 53.8316 80.9792 55.5831 78.4492C57.3995 75.9841 58.3077 72.9676 58.3077 69.3996C58.3077 67.5832 57.9185 65.9938 57.1401 64.6315C56.4265 63.2044 55.129 61.7447 53.2477 60.2527C51.4313 58.6958 48.7716 56.8145 45.2685 54.6088V52.1762C48.8365 47.8946 51.2043 44.7159 52.372 42.64C53.6045 40.4992 54.2208 38.3909 54.2208 36.315C54.2208 32.9417 53.2153 30.1846 51.2043 28.0438C49.2581 25.8382 46.7281 24.7354 43.6143 24.7354C39.722 24.7354 34.7917 27.1681 28.8235 32.0335L25.9043 28.3358L39.9166 17.2427C41.2789 16.7237 42.6412 16.4642 44.0035 16.4642C48.0904 16.4642 51.8854 17.1129 55.3885 18.4104C58.8916 19.7078 61.6811 21.4594 63.757 23.665C65.8329 25.8058 66.8708 28.1736 66.8708 30.7685C66.6762 33.1038 65.768 35.5365 64.1462 38.0665C62.5893 40.5965 59.962 43.7753 56.2643 47.6027Z" fill="#CBB796"/>
<path fill-rule="evenodd" clip-rule="evenodd" d="M53.9501 87.8417C56.5865 86.3193 58.8824 84.7779 60.8378 83.2174C67.5844 77.833 70.9578 71.7026 70.9578 64.8262C70.9578 61.8421 69.8874 59.1175 67.7466 56.6523C65.6058 54.1223 61.7784 51.1058 56.2643 47.6027C59.962 43.7753 62.5893 40.5966 64.1462 38.0666C65.768 35.5366 66.6762 33.1039 66.8708 30.7685C66.8708 28.1736 65.8329 25.8058 63.757 23.665C61.6811 21.4594 58.8916 19.7079 55.3885 18.4104C54.9144 18.2348 54.4349 18.0711 53.9501 17.9193V33.449C54.1306 34.349 54.2208 35.3044 54.2208 36.315C54.2208 37.1095 54.1306 37.9086 53.9501 38.7126V60.8315C55.4557 62.1227 56.519 63.3894 57.1401 64.6316C57.9185 65.9939 58.3078 67.5832 58.3078 69.3997C58.3078 72.9676 57.3996 75.9841 55.5831 78.4493C55.1284 79.1061 54.5841 79.7564 53.9501 80.4001V87.8417Z" fill="#1B1612"/>
</svg>
