<svg width="181" height="195" viewBox="0 0 181 195" fill="none" xmlns="http://www.w3.org/2000/svg">
<g filter="url(#filter0_d_426_1316)">
<path d="M139.2 37.1923H41.6425C39.154 37.1923 37.2029 39.3297 37.4293 41.808L46.776 144.129C46.9428 145.955 48.2672 147.466 50.0558 147.871L90.5222 157.024C91.1516 157.166 91.8053 157.163 92.4332 157.014L130.828 147.895C132.596 147.475 133.898 145.973 134.063 144.164L143.413 41.808C143.639 39.3297 141.688 37.1923 139.2 37.1923Z" fill="#DB5C01"/>
<path d="M133.92 42.4808H95.1807C92.8441 42.4808 90.95 44.3749 90.95 46.7115V146.165C90.95 148.866 93.4476 150.876 96.0865 150.297L126.524 143.626C128.328 143.231 129.668 141.71 129.832 139.87L138.134 47.0886C138.355 44.613 136.405 42.4808 133.92 42.4808Z" fill="#F8A73F"/>
<path d="M93.2643 84.6027C98.7784 88.1058 102.606 91.1223 104.747 93.6523C106.887 96.1174 107.958 98.8421 107.958 101.826C107.958 108.703 104.584 114.833 97.8377 120.217C91.0911 125.602 80.2899 130.759 65.4343 135.689L63.9747 131.018C72.4729 127.905 78.9276 125.148 83.3389 122.747C87.7502 120.412 90.8316 117.979 92.5831 115.449C94.3995 112.984 95.3077 109.968 95.3077 106.4C95.3077 104.583 94.9185 102.994 94.1401 101.632C93.4265 100.204 92.129 98.7447 90.2477 97.2527C88.4313 95.6958 85.7716 93.8145 82.2685 91.6088V89.1762C85.8365 84.8946 88.2043 81.7159 89.372 79.64C90.6045 77.4992 91.2208 75.3909 91.2208 73.315C91.2208 69.9417 90.2153 67.1846 88.2043 65.0438C86.2581 62.8382 83.7281 61.7354 80.6143 61.7354C76.722 61.7354 71.7917 64.1681 65.8235 69.0335L62.9043 65.3358L76.9166 54.2427C78.2789 53.7237 79.6412 53.4642 81.0035 53.4642C85.0904 53.4642 88.8854 54.1129 92.3885 55.4104C95.8916 56.7078 98.6811 58.4594 100.757 60.665C102.833 62.8058 103.871 65.1736 103.871 67.7685C103.676 70.1038 102.768 72.5365 101.146 75.0665C99.5893 77.5965 96.962 80.7753 93.2643 84.6027Z" fill="#CBB796"/>
<path fill-rule="evenodd" clip-rule="evenodd" d="M90.9501 124.842C93.5865 123.319 95.8824 121.778 97.8378 120.217C104.584 114.833 107.958 108.703 107.958 101.826C107.958 98.8421 106.887 96.1175 104.747 93.6523C102.606 91.1223 98.7784 88.1058 93.2643 84.6027C96.962 80.7753 99.5893 77.5966 101.146 75.0666C102.768 72.5366 103.676 70.1039 103.871 67.7685C103.871 65.1736 102.833 62.8058 100.757 60.665C98.6811 58.4594 95.8916 56.7079 92.3885 55.4104C91.9144 55.2348 91.4349 55.0711 90.9501 54.9193V70.449C91.1306 71.349 91.2208 72.3044 91.2208 73.315C91.2208 74.1095 91.1306 74.9086 90.9501 75.7126V97.8315C92.4557 99.1227 93.519 100.389 94.1401 101.632C94.9185 102.994 95.3078 104.583 95.3078 106.4C95.3078 109.968 94.3996 112.984 92.5831 115.449C92.1284 116.106 91.5841 116.756 90.9501 117.4V124.842Z" fill="#1B1612"/>
</g>
<defs>
<filter id="filter0_d_426_1316" x="-0.19231" y="-0.200001" width="181.227" height="194.528" filterUnits="userSpaceOnUse" color-interpolation-filters="sRGB">
<feFlood flood-opacity="0" result="BackgroundImageFix"/>
<feColorMatrix in="SourceAlpha" type="matrix" values="0 0 0 0 0 0 0 0 0 0 0 0 0 0 0 0 0 0 127 0" result="hardAlpha"/>
<feOffset/>
<feGaussianBlur stdDeviation="18.6"/>
<feComposite in2="hardAlpha" operator="out"/>
<feColorMatrix type="matrix" values="0 0 0 0 0.105882 0 0 0 0 0.0862745 0 0 0 0 0.0705882 0 0 0 1 0"/>
<feBlend mode="normal" in2="BackgroundImageFix" result="effect1_dropShadow_426_1316"/>
<feBlend mode="normal" in="SourceGraphic" in2="effect1_dropShadow_426_1316" result="shape"/>
</filter>
</defs>
</svg>
