<svg width="79" height="117" viewBox="0 0 79 117" fill="none" xmlns="http://www.w3.org/2000/svg">
<path d="M0 18.6876C0 8.36672 8.36672 0 18.6876 0H38.71V38.71H18.6876C8.36672 38.71 0 30.3433 0 20.0224V18.6876Z" fill="#F8A73F"/>
<path d="M0 57.3975C0 47.0767 8.36672 38.71 18.6876 38.71H38.71V77.42H18.6876C8.36672 77.42 0 69.0532 0 58.7324V57.3975Z" fill="#DB5C01"/>
<path d="M0 96.1075C0 85.7866 8.36672 77.4199 18.6876 77.4199H38.71V116.13H18.6876C8.36672 116.13 0 107.763 0 97.4423V96.1075Z" fill="#1B1612"/>
<g style="mix-blend-mode:soft-light">
<path d="M77.42 18.6876C77.42 8.36672 69.0533 0 58.7325 0H38.71V38.71H58.7325C69.0533 38.71 77.42 30.3433 77.42 20.0224V18.6876Z" fill="#F8A73F"/>
</g>
<g style="mix-blend-mode:soft-light">
<circle cx="58.7324" cy="58.7324" r="20.0224" fill="#DB5C01"/>
</g>
</svg>
