<svg width="108" height="121" viewBox="0 0 108 121" fill="none" xmlns="http://www.w3.org/2000/svg">
<path d="M103.192 0.192322H5.63485C3.14629 0.192322 1.19524 2.32972 1.42162 4.80795L10.7683 107.129C10.9351 108.955 12.2595 110.466 14.0481 110.871L54.5145 120.024C55.1439 120.166 55.7976 120.163 56.4255 120.014L94.8199 110.895C96.5878 110.475 97.8902 108.973 98.0555 107.164L107.405 4.80795C107.632 2.32972 105.681 0.192322 103.192 0.192322Z" fill="#1B1612"/>
<path d="M97.9122 5.48077H59.173C56.8364 5.48077 54.9423 7.37494 54.9423 9.71153V109.165C54.9423 111.866 57.4399 113.876 60.0788 113.297L90.5165 106.626C92.3208 106.231 93.66 104.71 93.8246 102.87L102.126 10.0886C102.348 7.61304 100.398 5.48077 97.9122 5.48077Z" fill="#DB5C01"/>
<path d="M37.3085 37.1908C46.9095 41.4074 54.2725 45.0727 59.3974 48.1865C64.5222 51.2355 68.0578 54.0574 70.0039 56.6523C72.0149 59.1823 73.0204 61.9069 73.0204 64.8262C73.0204 70.5997 70.977 75.5949 66.8901 79.8115C62.8031 84.0931 57.7756 87.6286 51.8074 90.4181C45.8392 93.2076 38.7357 95.9646 30.497 98.6892L29.0374 94.0185C37.9248 90.7749 44.5742 87.9205 48.9854 85.4554C53.4616 82.9903 56.4781 80.5576 58.0351 78.1573C59.592 75.7571 60.3704 72.8378 60.3704 69.3996C60.3704 66.7399 59.6244 64.4045 58.1324 62.3935C56.7052 60.3176 53.9157 58.0471 49.7639 55.5819C45.6121 53.1168 39.4169 50.0678 31.1781 46.435L37.4058 17.4373H65.7224L68.8362 9.55538L71.7554 10.5285V30.9631L66.4035 29.2115H38.8654L37.2112 37.1908H37.3085Z" fill="#CBB796"/>
<path fill-rule="evenodd" clip-rule="evenodd" d="M54.9423 88.8373C59.557 86.3301 63.5395 83.3215 66.89 79.8116C70.9769 75.5949 73.0203 70.5998 73.0203 64.8262C73.0203 61.907 72.0148 59.1823 70.0038 56.6523C68.0576 54.0575 64.5221 51.2355 59.3973 48.1866C58.0638 47.3764 56.5788 46.5288 54.9423 45.6439V59.1113C56.3507 60.2547 57.414 61.3487 58.1323 62.3935C59.6243 64.4045 60.3703 66.7399 60.3703 69.3997C60.3703 72.8379 59.5919 75.7571 58.035 78.1573C57.3156 79.2663 56.2847 80.3822 54.9423 81.505V88.8373ZM54.9423 17.4373V29.2116H66.4034L71.7553 30.9631V10.5285L68.8361 9.55542L65.7223 17.4373H54.9423Z" fill="#1B1612"/>
</svg>
