<svg width="181" height="195" viewBox="0 0 181 195" fill="none" xmlns="http://www.w3.org/2000/svg">
<g filter="url(#filter0_d_426_1315)">
<path d="M139.192 37.1923H41.6348C39.1463 37.1923 37.1952 39.3297 37.4216 41.808L46.7683 144.129C46.9351 145.955 48.2595 147.466 50.0481 147.871L90.5145 157.024C91.1439 157.166 91.7976 157.163 92.4255 157.014L130.82 147.895C132.588 147.475 133.89 145.973 134.056 144.164L143.405 41.808C143.632 39.3297 141.681 37.1923 139.192 37.1923Z" fill="#1B1612"/>
<path d="M133.912 42.4808H95.173C92.8364 42.4808 90.9423 44.3749 90.9423 46.7115V146.165C90.9423 148.866 93.4399 150.876 96.0788 150.297L126.516 143.626C128.321 143.231 129.66 141.71 129.825 139.87L138.126 47.0886C138.348 44.613 136.398 42.4808 133.912 42.4808Z" fill="#DB5C01"/>
<path d="M73.3085 74.1908C82.9095 78.4074 90.2725 82.0727 95.3974 85.1865C100.522 88.2355 104.058 91.0574 106.004 93.6523C108.015 96.1823 109.02 98.9069 109.02 101.826C109.02 107.6 106.977 112.595 102.89 116.812C98.8031 121.093 93.7756 124.629 87.8074 127.418C81.8392 130.208 74.7357 132.965 66.497 135.689L65.0374 131.018C73.9248 127.775 80.5742 124.921 84.9854 122.455C89.4616 119.99 92.4781 117.558 94.0351 115.157C95.592 112.757 96.3704 109.838 96.3704 106.4C96.3704 103.74 95.6244 101.404 94.1324 99.3935C92.7052 97.3176 89.9157 95.0471 85.7639 92.5819C81.6121 90.1168 75.4169 87.0678 67.1781 83.435L73.4058 54.4373H101.722L104.836 46.5554L107.755 47.5285V67.9631L102.404 66.2115H74.8654L73.2112 74.1908H73.3085Z" fill="#CBB796"/>
<path fill-rule="evenodd" clip-rule="evenodd" d="M90.9423 125.837C95.557 123.33 99.5395 120.322 102.89 116.812C106.977 112.595 109.02 107.6 109.02 101.826C109.02 98.907 108.015 96.1823 106.004 93.6523C104.058 91.0575 100.522 88.2355 95.3973 85.1866C94.0638 84.3764 92.5788 83.5288 90.9423 82.6439V96.1113C92.3507 97.2547 93.414 98.3487 94.1323 99.3935C95.6243 101.405 96.3703 103.74 96.3703 106.4C96.3703 109.838 95.5919 112.757 94.035 115.157C93.3156 116.266 92.2847 117.382 90.9423 118.505V125.837ZM90.9423 54.4373V66.2116H102.403L107.755 67.9631V47.5285L104.836 46.5554L101.722 54.4373H90.9423Z" fill="#1B1612"/>
</g>
<defs>
<filter id="filter0_d_426_1315" x="-1.2" y="-0.200001" width="181.823" height="194.528" filterUnits="userSpaceOnUse" color-interpolation-filters="sRGB">
<feFlood flood-opacity="0" result="BackgroundImageFix"/>
<feColorMatrix in="SourceAlpha" type="matrix" values="0 0 0 0 0 0 0 0 0 0 0 0 0 0 0 0 0 0 127 0" result="hardAlpha"/>
<feOffset/>
<feGaussianBlur stdDeviation="18.6"/>
<feComposite in2="hardAlpha" operator="out"/>
<feColorMatrix type="matrix" values="0 0 0 0 0.105882 0 0 0 0 0.0862745 0 0 0 0 0.0705882 0 0 0 1 0"/>
<feBlend mode="normal" in2="BackgroundImageFix" result="effect1_dropShadow_426_1315"/>
<feBlend mode="normal" in="SourceGraphic" in2="effect1_dropShadow_426_1315" result="shape"/>
</filter>
</defs>
</svg>
