<svg width="107" height="121" viewBox="0 0 107 121" fill="none" xmlns="http://www.w3.org/2000/svg">
<path d="M102.365 0.192383H4.80794C2.31939 0.192383 0.368339 2.32978 0.594716 4.80802L9.94137 107.129C10.1082 108.956 11.4326 110.466 13.2212 110.871L53.6876 120.024C54.317 120.166 54.9707 120.163 55.5986 120.014L93.993 110.895C95.7609 110.475 97.0633 108.973 97.2286 107.164L106.578 4.80801C106.805 2.32978 104.854 0.192383 102.365 0.192383Z" fill="#F8A73F"/>
<path d="M97.0853 5.48071H58.3461C56.0095 5.48071 54.1154 7.37488 54.1154 9.71147V109.165C54.1154 111.866 56.613 113.876 59.2519 113.297L89.6896 106.626C91.4939 106.23 92.8331 104.71 92.9977 102.87L101.299 10.0885C101.521 7.61298 99.5707 5.48071 97.0853 5.48071Z" fill="#1B1612"/>
<path d="M43.2089 67.9291C43.2089 69.6162 43.251 71.1767 43.3354 72.6107C43.4619 74.0026 43.6095 74.9516 43.7783 75.4577L31.6312 90.8945L29.2271 88.9965C31.6312 85.9598 33.234 83.387 34.0353 81.2781C34.8789 79.1693 35.3007 76.5754 35.3007 73.4965V29.4636L27.4557 26.9962L28.721 24.4656H49.2191V26.4268L43.2089 31.1085V67.9291Z" fill="#1B1612"/>
<path d="M84.1309 62.9944C84.1309 61.6869 83.6037 60.4637 82.5492 59.325C81.4948 58.1862 80.1662 57.1528 78.5635 56.2249C77.0029 55.2549 74.873 54.0739 72.1737 52.6821C68.9682 50.995 66.3954 49.561 64.4552 48.38C62.5151 47.1569 60.8491 45.7228 59.4573 44.0779C58.1076 42.433 57.4328 40.6194 57.4328 38.6371C57.4328 36.5282 58.3185 34.2717 60.0899 31.8677C61.8614 29.4214 64.0124 27.3758 66.543 25.7309C69.1158 24.0438 71.4777 23.2003 73.6288 23.2003C76.2437 23.2003 79.2805 23.5166 82.739 24.1492C86.1975 24.7819 88.7282 25.4567 90.3309 26.1737V38.4473H87.9268C85.8601 35.0309 83.5826 32.3738 81.0941 30.4758C78.6478 28.5778 76.075 27.6289 73.3757 27.6289C70.9716 27.6289 69.0526 28.388 67.6185 29.9064C66.2267 31.3826 65.5308 33.3228 65.5308 35.7269C65.5308 37.1187 66.058 38.4262 67.1124 39.6493C68.209 40.8303 69.5376 41.8847 71.0981 42.8126C72.7009 43.7405 74.9152 44.9426 77.741 46.4188C80.8621 47.9793 83.3928 49.3712 85.3329 50.5943C87.2731 51.7752 88.8969 53.1671 90.2044 54.7698C91.554 56.3304 92.2289 58.1018 92.2289 60.0841C92.2289 62.193 91.2799 64.4706 89.3819 66.9168C87.4839 69.3209 85.1642 71.3665 82.4227 73.0536C79.7234 74.6985 77.256 75.521 75.0206 75.521C72.2791 75.521 69.0104 75.2046 65.2144 74.572C61.4607 73.9393 58.7613 73.2645 57.1164 72.5475V60.2739H59.5205C61.6716 63.6903 64.1178 66.3474 66.8593 68.2454C69.6009 70.1434 72.4267 71.0924 75.3369 71.0924C77.0662 71.0924 78.6057 70.7128 79.9553 69.9536C81.305 69.1944 82.3383 68.2032 83.0554 66.9801C83.7724 65.7148 84.1309 64.3862 84.1309 62.9944Z" fill="#CBB796"/>
</svg>
