<svg width="181" height="196" viewBox="0 0 181 196" fill="none" xmlns="http://www.w3.org/2000/svg">
<g filter="url(#filter0_d_340_1121)">
<path d="M139.2 38H41.6425C39.154 38 37.2029 40.1374 37.4293 42.6156L46.776 144.937C46.9428 146.763 48.2672 148.274 50.0558 148.679L90.5222 157.832C91.1516 157.974 91.8053 157.971 92.4332 157.821L130.828 148.703C132.596 148.283 133.898 146.781 134.063 144.971L143.413 42.6156C143.639 40.1374 141.688 38 139.2 38Z" fill="#F8A73F"/>
<path d="M133.92 43.2885H95.1807C92.8441 43.2885 90.95 45.1826 90.95 47.5192V146.972C90.95 149.674 93.4476 151.683 96.0865 151.105L126.524 144.434C128.328 144.038 129.668 142.518 129.832 140.678L138.134 47.8963C138.355 45.4207 136.405 43.2885 133.92 43.2885Z" fill="#1B1612"/>
<path d="M80.0435 105.737C80.0435 107.424 80.0856 108.984 80.17 110.418C80.2965 111.81 80.4441 112.759 80.6128 113.265L68.4658 128.702L66.0617 126.804C68.4658 123.767 70.0686 121.195 70.8699 119.086C71.7135 116.977 72.1352 114.383 72.1352 111.304V67.2712L64.2903 64.8038L65.5556 62.2732H86.0537V64.2344L80.0435 68.9161V105.737Z" fill="#1B1612"/>
<path d="M120.965 100.802C120.965 99.4945 120.438 98.2714 119.384 97.1326C118.329 95.9938 117.001 94.9604 115.398 94.0326C113.838 93.0625 111.708 91.8815 109.008 90.4897C105.803 88.8026 103.23 87.3686 101.29 86.1876C99.3497 84.9645 97.6837 83.5305 96.2919 81.8855C94.9422 80.2406 94.2674 78.427 94.2674 76.4447C94.2674 74.3358 95.1531 72.0794 96.9245 69.6753C98.6959 67.229 100.847 65.1834 103.378 63.5385C105.95 61.8514 108.312 61.0079 110.463 61.0079C113.078 61.0079 116.115 61.3242 119.574 61.9569C123.032 62.5895 125.563 63.2644 127.165 63.9814V76.2549H124.761C122.695 72.8386 120.417 70.1814 117.929 68.2834C115.482 66.3855 112.91 65.4365 110.21 65.4365C107.806 65.4365 105.887 66.1957 104.453 67.714C103.061 69.1902 102.365 71.1304 102.365 73.5345C102.365 74.9263 102.893 76.2338 103.947 77.4569C105.044 78.6379 106.372 79.6923 107.933 80.6202C109.535 81.5481 111.75 82.7502 114.576 84.2264C117.697 85.7869 120.227 87.1788 122.168 88.4019C124.108 89.5829 125.731 90.9747 127.039 92.5774C128.389 94.138 129.063 95.9094 129.063 97.8918C129.063 100.001 128.114 102.278 126.217 104.724C124.319 107.129 121.999 109.174 119.257 110.861C116.558 112.506 114.091 113.329 111.855 113.329C109.114 113.329 105.845 113.012 102.049 112.38C98.2953 111.747 95.5959 111.072 93.951 110.355V98.0816H96.3551C98.5062 101.498 100.952 104.155 103.694 106.053C106.435 107.951 109.261 108.9 112.172 108.9C113.901 108.9 115.44 108.52 116.79 107.761C118.14 107.002 119.173 106.011 119.89 104.788C120.607 103.522 120.965 102.194 120.965 100.802Z" fill="#CBB796"/>
</g>
<defs>
<filter id="filter0_d_340_1121" x="0.211376" y="0.799999" width="180.42" height="194.336" filterUnits="userSpaceOnUse" color-interpolation-filters="sRGB">
<feFlood flood-opacity="0" result="BackgroundImageFix"/>
<feColorMatrix in="SourceAlpha" type="matrix" values="0 0 0 0 0 0 0 0 0 0 0 0 0 0 0 0 0 0 127 0" result="hardAlpha"/>
<feOffset/>
<feGaussianBlur stdDeviation="18.6"/>
<feComposite in2="hardAlpha" operator="out"/>
<feColorMatrix type="matrix" values="0 0 0 0 0.105882 0 0 0 0 0.0862745 0 0 0 0 0.0705882 0 0 0 1 0"/>
<feBlend mode="normal" in2="BackgroundImageFix" result="effect1_dropShadow_340_1121"/>
<feBlend mode="normal" in="SourceGraphic" in2="effect1_dropShadow_340_1121" result="shape"/>
</filter>
</defs>
</svg>
