<svg width="202" height="107" viewBox="0 0 202 107" fill="none" xmlns="http://www.w3.org/2000/svg">
<g filter="url(#filter0_d_490_648)">
<path d="M23.5 33C23.5 27.4772 27.9772 23 33.5 23H150.003C152.863 23 155.586 24.2245 157.484 26.3639L176.016 47.2541C179.416 51.0872 179.369 56.8703 175.906 60.6475L157.473 80.7572C155.578 82.8235 152.904 84 150.101 84H33.5C27.9772 84 23.5 79.5228 23.5 74V33Z" fill="#99998F"/>
<path d="M23.5 33C23.5 27.4772 27.9772 23 33.5 23H144.5C150.023 23 154.5 27.4772 154.5 33V53.5V74C154.5 79.5228 150.023 84 144.5 84H33.5C27.9772 84 23.5 79.5228 23.5 74V33Z" fill="#99998F"/>
<path d="M66.8324 66.54L65.1824 66H52.0124V65.07C54.5524 62.95 56.4824 61.26 57.8024 60C59.1424 58.74 60.0724 57.71 60.5924 56.91C61.1124 56.11 61.3724 55.37 61.3724 54.69C61.3724 53.65 61.0124 52.8 60.2924 52.14C59.5724 51.46 58.6424 51.12 57.5024 51.12C56.2624 51.12 54.7424 51.87 52.9424 53.37L52.0424 52.23L56.3624 48.81C56.8824 48.65 57.5424 48.57 58.3424 48.57C59.7224 48.57 60.9324 48.76 61.9724 49.14C63.0324 49.5 63.8424 50.01 64.4024 50.67C64.9824 51.33 65.2724 52.1 65.2724 52.98C65.2724 54.92 62.7024 58.05 57.5624 62.37H64.9724L65.9324 59.94L66.8324 60.24V66.54ZM80.7177 48.57C82.2777 48.57 83.6677 48.94 84.8877 49.68C86.1277 50.42 87.0877 51.43 87.7677 52.71C88.4677 53.97 88.8177 55.37 88.8177 56.91C88.8177 58.57 88.2877 60.12 87.2277 61.56C86.1677 63 84.8277 64.15 83.2077 65.01C81.6077 65.87 80.0677 66.3 78.5877 66.3C77.0477 66.3 75.6577 65.94 74.4177 65.22C73.1777 64.48 72.2077 63.47 71.5077 62.19C70.8277 60.91 70.4877 59.5 70.4877 57.96C70.4877 56.3 71.0177 54.75 72.0777 53.31C73.1377 51.87 74.4677 50.72 76.0677 49.86C77.6877 49 79.2377 48.57 80.7177 48.57ZM78.9777 51.09C75.9177 51.09 74.3877 52.9 74.3877 56.52C74.3877 57.84 74.6077 59.05 75.0477 60.15C75.4877 61.25 76.1477 62.13 77.0277 62.79C77.9277 63.45 79.0277 63.78 80.3277 63.78C83.3877 63.78 84.9177 61.96 84.9177 58.32C84.9177 57 84.6977 55.79 84.2577 54.69C83.8177 53.59 83.1477 52.72 82.2477 52.08C81.3677 51.42 80.2777 51.09 78.9777 51.09ZM107.057 66.54L105.407 66H92.237V65.07C94.777 62.95 96.707 61.26 98.027 60C99.367 58.74 100.297 57.71 100.817 56.91C101.337 56.11 101.597 55.37 101.597 54.69C101.597 53.65 101.237 52.8 100.517 52.14C99.797 51.46 98.867 51.12 97.727 51.12C96.487 51.12 94.967 51.87 93.167 53.37L92.267 52.23L96.587 48.81C97.107 48.65 97.767 48.57 98.567 48.57C99.947 48.57 101.157 48.76 102.197 49.14C103.257 49.5 104.067 50.01 104.627 50.67C105.207 51.33 105.497 52.1 105.497 52.98C105.497 54.92 102.927 58.05 97.787 62.37H105.197L106.157 59.94L107.057 60.24V66.54ZM124.752 66.54L123.102 66H109.932V65.07C112.472 62.95 114.402 61.26 115.722 60C117.062 58.74 117.992 57.71 118.512 56.91C119.032 56.11 119.292 55.37 119.292 54.69C119.292 53.65 118.932 52.8 118.212 52.14C117.492 51.46 116.562 51.12 115.422 51.12C114.182 51.12 112.662 51.87 110.862 53.37L109.962 52.23L114.282 48.81C114.802 48.65 115.462 48.57 116.262 48.57C117.642 48.57 118.852 48.76 119.892 49.14C120.952 49.5 121.762 50.01 122.322 50.67C122.902 51.33 123.192 52.1 123.192 52.98C123.192 54.92 120.622 58.05 115.482 62.37H122.892L123.852 59.94L124.752 60.24V66.54Z" fill="#1B1612"/>
</g>
<defs>
<filter id="filter0_d_490_648" x="0.5" y="0" width="201.035" height="107" filterUnits="userSpaceOnUse" color-interpolation-filters="sRGB">
<feFlood flood-opacity="0" result="BackgroundImageFix"/>
<feColorMatrix in="SourceAlpha" type="matrix" values="0 0 0 0 0 0 0 0 0 0 0 0 0 0 0 0 0 0 127 0" result="hardAlpha"/>
<feOffset/>
<feGaussianBlur stdDeviation="11.5"/>
<feComposite in2="hardAlpha" operator="out"/>
<feColorMatrix type="matrix" values="0 0 0 0 0.796078 0 0 0 0 0.717647 0 0 0 0 0.588235 0 0 0 0.5 0"/>
<feBlend mode="normal" in2="BackgroundImageFix" result="effect1_dropShadow_490_648"/>
<feBlend mode="normal" in="SourceGraphic" in2="effect1_dropShadow_490_648" result="shape"/>
</filter>
</defs>
</svg>
