<svg width="202" height="107" viewBox="0 0 202 107" fill="none" xmlns="http://www.w3.org/2000/svg">
<g filter="url(#filter0_d_490_45)">
<path d="M23.5 33C23.5 27.4772 27.9772 23 33.5 23H150.003C152.863 23 155.586 24.2245 157.484 26.3639L176.016 47.2541C179.416 51.0872 179.369 56.8703 175.906 60.6475L157.473 80.7572C155.578 82.8235 152.904 84 150.101 84H33.5C27.9772 84 23.5 79.5228 23.5 74V33Z" fill="#99998F"/>
</g>
<path d="M23.5 33C23.5 27.4772 27.9772 23 33.5 23H144.5C150.023 23 154.5 27.4772 154.5 33V53.5V74C154.5 79.5228 150.023 84 144.5 84H33.5C27.9772 84 23.5 79.5228 23.5 74V33Z" fill="#99998F"/>
<path d="M64.9154 66.54L63.2654 66H50.0954V65.07C52.6354 62.95 54.5654 61.26 55.8854 60C57.2254 58.74 58.1554 57.71 58.6754 56.91C59.1954 56.11 59.4554 55.37 59.4554 54.69C59.4554 53.65 59.0954 52.8 58.3754 52.14C57.6554 51.46 56.7254 51.12 55.5854 51.12C54.3454 51.12 52.8254 51.87 51.0254 53.37L50.1254 52.23L54.4454 48.81C54.9654 48.65 55.6254 48.57 56.4254 48.57C57.8054 48.57 59.0154 48.76 60.0554 49.14C61.1154 49.5 61.9254 50.01 62.4854 50.67C63.0654 51.33 63.3554 52.1 63.3554 52.98C63.3554 54.92 60.7854 58.05 55.6454 62.37H63.0554L64.0154 59.94L64.9154 60.24V66.54ZM78.8007 48.57C80.3607 48.57 81.7507 48.94 82.9707 49.68C84.2107 50.42 85.1707 51.43 85.8507 52.71C86.5507 53.97 86.9007 55.37 86.9007 56.91C86.9007 58.57 86.3707 60.12 85.3107 61.56C84.2507 63 82.9107 64.15 81.2907 65.01C79.6907 65.87 78.1507 66.3 76.6707 66.3C75.1307 66.3 73.7407 65.94 72.5007 65.22C71.2607 64.48 70.2907 63.47 69.5907 62.19C68.9107 60.91 68.5707 59.5 68.5707 57.96C68.5707 56.3 69.1007 54.75 70.1607 53.31C71.2207 51.87 72.5507 50.72 74.1507 49.86C75.7707 49 77.3207 48.57 78.8007 48.57ZM77.0607 51.09C74.0007 51.09 72.4707 52.9 72.4707 56.52C72.4707 57.84 72.6907 59.05 73.1307 60.15C73.5707 61.25 74.2307 62.13 75.1107 62.79C76.0107 63.45 77.1107 63.78 78.4107 63.78C81.4707 63.78 83.0007 61.96 83.0007 58.32C83.0007 57 82.7807 55.79 82.3407 54.69C81.9007 53.59 81.2307 52.72 80.3307 52.08C79.4507 51.42 78.3607 51.09 77.0607 51.09ZM105.14 66.54L103.49 66H90.32V65.07C92.86 62.95 94.79 61.26 96.11 60C97.45 58.74 98.38 57.71 98.9 56.91C99.42 56.11 99.68 55.37 99.68 54.69C99.68 53.65 99.32 52.8 98.6 52.14C97.88 51.46 96.95 51.12 95.81 51.12C94.57 51.12 93.05 51.87 91.25 53.37L90.35 52.23L94.67 48.81C95.19 48.65 95.85 48.57 96.65 48.57C98.03 48.57 99.24 48.76 100.28 49.14C101.34 49.5 102.15 50.01 102.71 50.67C103.29 51.33 103.58 52.1 103.58 52.98C103.58 54.92 101.01 58.05 95.87 62.37H103.28L104.24 59.94L105.14 60.24V66.54ZM119.025 48.57C120.585 48.57 121.975 48.94 123.195 49.68C124.435 50.42 125.395 51.43 126.075 52.71C126.775 53.97 127.125 55.37 127.125 56.91C127.125 58.57 126.595 60.12 125.535 61.56C124.475 63 123.135 64.15 121.515 65.01C119.915 65.87 118.375 66.3 116.895 66.3C115.355 66.3 113.965 65.94 112.725 65.22C111.485 64.48 110.515 63.47 109.815 62.19C109.135 60.91 108.795 59.5 108.795 57.96C108.795 56.3 109.325 54.75 110.385 53.31C111.445 51.87 112.775 50.72 114.375 49.86C115.995 49 117.545 48.57 119.025 48.57ZM117.285 51.09C114.225 51.09 112.695 52.9 112.695 56.52C112.695 57.84 112.915 59.05 113.355 60.15C113.795 61.25 114.455 62.13 115.335 62.79C116.235 63.45 117.335 63.78 118.635 63.78C121.695 63.78 123.225 61.96 123.225 58.32C123.225 57 123.005 55.79 122.565 54.69C122.125 53.59 121.455 52.72 120.555 52.08C119.675 51.42 118.585 51.09 117.285 51.09Z" fill="#1B1612"/>
<defs>
<filter id="filter0_d_490_45" x="0.5" y="0" width="201.035" height="107" filterUnits="userSpaceOnUse" color-interpolation-filters="sRGB">
<feFlood flood-opacity="0" result="BackgroundImageFix"/>
<feColorMatrix in="SourceAlpha" type="matrix" values="0 0 0 0 0 0 0 0 0 0 0 0 0 0 0 0 0 0 127 0" result="hardAlpha"/>
<feOffset/>
<feGaussianBlur stdDeviation="11.5"/>
<feComposite in2="hardAlpha" operator="out"/>
<feColorMatrix type="matrix" values="0 0 0 0 0.796078 0 0 0 0 0.717647 0 0 0 0 0.588235 0 0 0 0.5 0"/>
<feBlend mode="normal" in2="BackgroundImageFix" result="effect1_dropShadow_490_45"/>
<feBlend mode="normal" in="SourceGraphic" in2="effect1_dropShadow_490_45" result="shape"/>
</filter>
</defs>
</svg>
