<svg width="117" height="117" viewBox="0 0 117 117" fill="none" xmlns="http://www.w3.org/2000/svg">
<rect width="116.13" height="116.13" rx="10.8388" fill="#DB5C01"/>
<rect x="9.29041" y="9.29028" width="97.5492" height="97.5492" fill="#1B1612"/>
<path d="M46.8109 60.5066C49.4122 60.5066 51.4588 59.7989 52.9507 58.3835C54.4809 56.9681 55.246 55.0171 55.246 52.5305C55.246 49.0111 54.347 46.142 52.5491 43.9233C50.7894 41.6662 48.2072 40.5377 44.8025 40.5377C42.2012 40.5377 39.8294 41.2837 37.6872 42.7756V77.7786L46.5814 80.246L45.4337 82.5413H25.1205V80.7624L30.5144 76.5162V41.628L24.5467 39.677L25.6943 37.3817H32.3506C36.0613 37.3817 39.7147 37.267 43.3106 37.0374C45.9884 36.8844 47.9585 36.8079 49.2209 36.8079C51.8987 36.8079 54.2705 37.3817 56.3363 38.5294C58.4403 39.6387 60.0661 41.1881 61.2137 43.1773C62.3614 45.1665 62.9352 47.3662 62.9352 49.7762C62.9352 52.454 61.9597 54.9788 60.0087 57.3506C58.0577 59.7224 55.5712 61.5778 52.5491 62.9167C49.527 64.2556 46.5622 64.8485 43.6549 64.6955L40.9579 62.7445L42.1056 60.4492H46.7535L46.8109 60.5066ZM85.1702 76.2866C85.1702 75.2155 84.5773 74.24 83.3914 73.3602C82.2055 72.4421 80.3884 71.3518 77.9401 70.0894C75.9509 69.0565 74.3442 68.1575 73.12 67.3925C71.8959 66.6274 70.8439 65.7475 69.964 64.7529C69.1224 63.72 68.7016 62.6106 68.7016 61.4247C68.7016 60.0476 69.2754 58.5748 70.4231 57.0063C71.5707 55.4379 72.9861 54.1181 74.6693 53.047C76.3525 51.9759 77.921 51.4403 79.3747 51.4403C81.1344 51.4403 83.1619 51.6698 85.4571 52.1289C87.7907 52.5497 89.4739 53.0279 90.5067 53.5634V62.4002H88.3262C87.1021 60.0284 85.6867 58.1922 84.08 56.8916C82.4733 55.5527 80.8283 54.8832 79.1451 54.8832C77.9592 54.8832 77.0029 55.2084 76.276 55.8587C75.5492 56.4708 75.1858 57.255 75.1858 58.2113C75.1858 59.3972 75.7978 60.4684 77.022 61.4247C78.2844 62.3428 80.178 63.4331 82.7028 64.6955C84.6538 65.6901 86.2222 66.5508 87.4081 67.2777C88.594 68.0045 89.5886 68.8653 90.392 69.8599C91.2336 70.8162 91.6544 71.8874 91.6544 73.0733C91.6544 74.4887 91.0423 75.9806 89.8182 77.549C88.6323 79.0792 87.1595 80.3799 85.3997 81.451C83.6783 82.5221 82.0907 83.0577 80.6371 83.0577C78.7626 83.0577 76.5247 82.8473 73.9234 82.4265C71.3603 81.9674 69.5241 81.4701 68.4147 80.9346V72.0978H70.5952C71.9341 74.4695 73.5217 76.3249 75.3579 77.6638C77.1941 78.9645 79.0495 79.6148 80.924 79.6148C82.1864 79.6148 83.2001 79.2896 83.9652 78.6393C84.7685 77.989 85.1702 77.2048 85.1702 76.2866Z" fill="#DB5C01"/>
</svg>
