<svg width="192" height="192" viewBox="0 0 192 192" fill="none" xmlns="http://www.w3.org/2000/svg">
<g filter="url(#filter0_d_340_1094)">
<rect x="38" y="38" width="116.13" height="116.13" rx="10.8388" fill="#DB5C01"/>
<rect x="47.2904" y="47.2904" width="97.5492" height="97.5492" fill="#1B1612"/>
<path d="M84.8109 98.5067C87.4122 98.5067 89.4588 97.799 90.9507 96.3836C92.4809 94.9682 93.246 93.0172 93.246 90.5307C93.246 87.0112 92.347 84.1421 90.5491 81.9234C88.7894 79.6664 86.2072 78.5379 82.8025 78.5379C80.2012 78.5379 77.8294 79.2838 75.6872 80.7757V115.779L84.5814 118.246L83.4337 120.541H63.1205V118.763L68.5144 114.516V79.6281L62.5467 77.6771L63.6943 75.3818H70.3506C74.0613 75.3818 77.7147 75.2671 81.3106 75.0376C83.9884 74.8845 85.9585 74.808 87.2209 74.808C89.8987 74.808 92.2705 75.3818 94.3363 76.5295C96.4403 77.6389 98.0661 79.1882 99.2137 81.1774C100.361 83.1667 100.935 85.3663 100.935 87.7763C100.935 90.4542 99.9597 92.979 98.0087 95.3507C96.0577 97.7225 93.5712 99.5779 90.5491 100.917C87.527 102.256 84.5622 102.849 81.6549 102.696L78.9579 100.745L80.1056 98.4494H84.7535L84.8109 98.5067ZM123.17 114.287C123.17 113.216 122.577 112.24 121.391 111.36C120.205 110.442 118.388 109.352 115.94 108.09C113.951 107.057 112.344 106.158 111.12 105.393C109.896 104.627 108.844 103.748 107.964 102.753C107.122 101.72 106.702 100.611 106.702 99.4249C106.702 98.0477 107.275 96.5749 108.423 95.0064C109.571 93.438 110.986 92.1182 112.669 91.0471C114.353 89.976 115.921 89.4404 117.375 89.4404C119.134 89.4404 121.162 89.6699 123.457 90.129C125.791 90.5498 127.474 91.028 128.507 91.5635V100.4H126.326C125.102 98.0286 123.687 96.1923 122.08 94.8917C120.473 93.5528 118.828 92.8833 117.145 92.8833C115.959 92.8833 115.003 93.2085 114.276 93.8588C113.549 94.4709 113.186 95.2551 113.186 96.2115C113.186 97.3974 113.798 98.4685 115.022 99.4249C116.284 100.343 118.178 101.433 120.703 102.696C122.654 103.69 124.222 104.551 125.408 105.278C126.594 106.005 127.589 106.865 128.392 107.86C129.234 108.816 129.654 109.887 129.654 111.073C129.654 112.489 129.042 113.981 127.818 115.549C126.632 117.079 125.159 118.38 123.4 119.451C121.678 120.522 120.091 121.058 118.637 121.058C116.763 121.058 114.525 120.847 111.923 120.427C109.36 119.968 107.524 119.47 106.415 118.935V110.098H108.595C109.934 112.47 111.522 114.325 113.358 115.664C115.194 116.965 117.049 117.615 118.924 117.615C120.186 117.615 121.2 117.29 121.965 116.639C122.769 115.989 123.17 115.205 123.17 114.287Z" fill="#DB5C01"/>
</g>
<defs>
<filter id="filter0_d_340_1094" x="0.799999" y="0.799999" width="190.53" height="190.53" filterUnits="userSpaceOnUse" color-interpolation-filters="sRGB">
<feFlood flood-opacity="0" result="BackgroundImageFix"/>
<feColorMatrix in="SourceAlpha" type="matrix" values="0 0 0 0 0 0 0 0 0 0 0 0 0 0 0 0 0 0 127 0" result="hardAlpha"/>
<feOffset/>
<feGaussianBlur stdDeviation="18.6"/>
<feComposite in2="hardAlpha" operator="out"/>
<feColorMatrix type="matrix" values="0 0 0 0 0.105882 0 0 0 0 0.0862745 0 0 0 0 0.0705882 0 0 0 1 0"/>
<feBlend mode="normal" in2="BackgroundImageFix" result="effect1_dropShadow_340_1094"/>
<feBlend mode="normal" in="SourceGraphic" in2="effect1_dropShadow_340_1094" result="shape"/>
</filter>
</defs>
</svg>
