<svg width="111" height="117" viewBox="0 0 111 117" fill="none" xmlns="http://www.w3.org/2000/svg">
<path d="M78.7249 102.463C78.7249 110.008 72.6083 116.125 65.0632 116.125H45.9367C38.3915 116.125 32.2749 110.008 32.2749 102.463V65.5765C32.2749 58.0313 38.3915 51.9147 45.9367 51.9147H63.0139H65.0632C67.5516 51.9147 69.8846 52.58 71.894 53.7424C75.9775 56.1046 78.7249 60.5197 78.7249 65.5765V102.463Z" fill="#F8A73F"/>
<path d="M110.147 58.7456C110.147 73.0814 98.5255 84.7029 84.1896 84.7029H71.894V53.7424V45.0838V32.7882H84.1896C98.5255 32.7882 110.147 44.4097 110.147 58.7456Z" fill="#F8A73F"/>
<path d="M65.0632 51.9147C67.5516 51.9147 69.8846 52.58 71.894 53.7424V45.0838C71.3476 49.4556 65.7462 51.4593 63.0139 51.9147H65.0632Z" fill="#F8A73F"/>
<path d="M32.275 13.6618C32.275 6.11658 38.3915 0 45.9367 0H65.0632C72.6084 0 78.725 6.11658 78.725 13.6618V50.5485C78.725 58.0937 72.6084 64.2103 65.0632 64.2103H47.986H45.9367C43.4483 64.2103 41.1153 63.545 39.1058 62.3826C35.0223 60.0204 32.275 55.6053 32.275 50.5485V13.6618Z" fill="#DB5C01"/>
<path d="M0.852905 57.3794C0.852905 43.0436 12.4744 31.4221 26.8103 31.4221H39.1058V62.3826V71.0412V83.3368H26.8103C12.4744 83.3368 0.852905 71.7153 0.852905 57.3794Z" fill="#DB5C01"/>
<path d="M45.9367 64.2103C43.4483 64.2103 41.1153 63.545 39.1058 62.3826V71.0412C39.6523 66.6694 45.2536 64.6657 47.986 64.2103H45.9367Z" fill="#DB5C01"/>
<g style="mix-blend-mode:soft-light">
<path d="M78.7249 102.463C78.7249 110.008 72.6083 116.125 65.0632 116.125H45.9367C38.3915 116.125 32.2749 110.008 32.2749 102.463V65.5765C32.2749 58.0313 38.3915 51.9147 45.9367 51.9147H63.0139H65.0632C67.5516 51.9147 69.8846 52.58 71.894 53.7424C75.9775 56.1046 78.7249 60.5197 78.7249 65.5765V102.463Z" fill="#F8A73F"/>
<path d="M110.147 58.7456C110.147 73.0814 98.5255 84.7029 84.1896 84.7029H71.894V53.7424V45.0838V32.7882H84.1896C98.5255 32.7882 110.147 44.4097 110.147 58.7456Z" fill="#F8A73F"/>
<path d="M65.0632 51.9147C67.5516 51.9147 69.8846 52.58 71.894 53.7424V45.0838C71.3476 49.4556 65.7462 51.4593 63.0139 51.9147H65.0632Z" fill="#F8A73F"/>
</g>
<rect x="32.3529" y="27.5" width="25" height="4" fill="#F8A73F"/>
<rect x="53.7529" y="84.7" width="25" height="4" fill="#DB5C01"/>
<circle cx="42.8529" cy="18" r="5" fill="#CBB796"/>
<circle cx="67.8529" cy="98" r="5" fill="#CBB796"/>
</svg>
