<svg width="185" height="192" viewBox="0 0 185 192" fill="none" xmlns="http://www.w3.org/2000/svg">
<g filter="url(#filter0_d_327_1068)">
<path d="M115.872 140.463C115.872 148.008 109.755 154.125 102.21 154.125H83.0838C75.5386 154.125 69.422 148.008 69.422 140.463V103.576C69.422 96.0313 75.5386 89.9147 83.0838 89.9147H100.161H102.21C104.699 89.9147 107.032 90.58 109.041 91.7424C113.125 94.1046 115.872 98.5197 115.872 103.576V140.463Z" fill="#F8A73F"/>
<path d="M147.294 96.7456C147.294 111.081 135.673 122.703 121.337 122.703H109.041V91.7424V83.0838V70.7882H121.337C135.673 70.7882 147.294 82.4097 147.294 96.7456Z" fill="#F8A73F"/>
<path d="M102.21 89.9147C104.699 89.9147 107.032 90.58 109.041 91.7424V83.0838C108.495 87.4556 102.893 89.4593 100.161 89.9147H102.21Z" fill="#F8A73F"/>
<path d="M69.4221 51.6618C69.4221 44.1166 75.5386 38 83.0838 38H102.21C109.755 38 115.872 44.1166 115.872 51.6618V88.5485C115.872 96.0937 109.755 102.21 102.21 102.21H85.1331H83.0838C80.5954 102.21 78.2624 101.545 76.2529 100.383C72.1694 98.0204 69.4221 93.6053 69.4221 88.5485V51.6618Z" fill="#DB5C01"/>
<path d="M38 95.3794C38 81.0436 49.6215 69.4221 63.9574 69.4221H76.2529V100.383V109.041V121.337H63.9574C49.6215 121.337 38 109.715 38 95.3794Z" fill="#DB5C01"/>
<path d="M83.0838 102.21C80.5954 102.21 78.2624 101.545 76.2529 100.383V109.041C76.7994 104.669 82.4007 102.666 85.1331 102.21H83.0838Z" fill="#DB5C01"/>
<g style="mix-blend-mode:soft-light">
<path d="M115.872 140.463C115.872 148.008 109.755 154.125 102.21 154.125H83.0838C75.5386 154.125 69.422 148.008 69.422 140.463V103.576C69.422 96.0313 75.5386 89.9147 83.0838 89.9147H100.161H102.21C104.699 89.9147 107.032 90.58 109.041 91.7424C113.125 94.1046 115.872 98.5197 115.872 103.576V140.463Z" fill="#F8A73F"/>
<path d="M147.294 96.7456C147.294 111.081 135.673 122.703 121.337 122.703H109.041V91.7424V83.0838V70.7882H121.337C135.673 70.7882 147.294 82.4097 147.294 96.7456Z" fill="#F8A73F"/>
<path d="M102.21 89.9147C104.699 89.9147 107.032 90.58 109.041 91.7424V83.0838C108.495 87.4556 102.893 89.4593 100.161 89.9147H102.21Z" fill="#F8A73F"/>
</g>
<rect x="69.5" y="65.5" width="25" height="4" fill="#F8A73F"/>
<rect x="90.9" y="122.7" width="25" height="4" fill="#DB5C01"/>
<circle cx="80" cy="56" r="5" fill="#CBB796"/>
<circle cx="105" cy="136" r="5" fill="#CBB796"/>
</g>
<defs>
<filter id="filter0_d_327_1068" x="0.799999" y="0.799999" width="183.694" height="190.525" filterUnits="userSpaceOnUse" color-interpolation-filters="sRGB">
<feFlood flood-opacity="0" result="BackgroundImageFix"/>
<feColorMatrix in="SourceAlpha" type="matrix" values="0 0 0 0 0 0 0 0 0 0 0 0 0 0 0 0 0 0 127 0" result="hardAlpha"/>
<feOffset/>
<feGaussianBlur stdDeviation="18.6"/>
<feComposite in2="hardAlpha" operator="out"/>
<feColorMatrix type="matrix" values="0 0 0 0 0.105882 0 0 0 0 0.0862745 0 0 0 0 0.0705882 0 0 0 1 0"/>
<feBlend mode="normal" in2="BackgroundImageFix" result="effect1_dropShadow_327_1068"/>
<feBlend mode="normal" in="SourceGraphic" in2="effect1_dropShadow_327_1068" result="shape"/>
</filter>
</defs>
</svg>
