<svg width="191" height="192" viewBox="0 0 191 192" fill="none" xmlns="http://www.w3.org/2000/svg">
<g filter="url(#filter0_d_340_1153)">
<g filter="url(#filter1_d_340_1153)">
<path fill-rule="evenodd" clip-rule="evenodd" d="M143.964 154.13H98.994H97.9779C97.9682 154.13 97.9602 154.122 97.9602 154.112C97.9602 154.103 97.9529 154.095 97.9436 154.095C90.2502 153.575 84.1763 147.386 84.1763 139.829C84.1763 131.931 90.8104 125.528 98.994 125.528C101.844 125.528 104.793 123.94 106.178 121.449C109.614 115.268 116.45 111.055 124.322 111.055C135.646 111.055 144.826 119.772 144.826 130.525C144.826 133.379 144.179 136.089 143.018 138.531C142.705 139.189 143.236 140.001 143.964 140.001C149.388 140.001 153.785 143.164 153.785 147.066C153.785 150.755 149.853 153.784 144.839 154.102C144.832 154.103 144.826 154.109 144.826 154.116C144.826 154.124 144.82 154.13 144.812 154.13H143.964Z" fill="#DB5C01"/>
</g>
<g filter="url(#filter2_d_340_1153)">
<path fill-rule="evenodd" clip-rule="evenodd" d="M117.255 53.1624C117.257 53.105 117.258 53.0476 117.258 52.9901C117.258 44.7113 99.5154 38 77.6289 38C55.7425 38 38 44.7113 38 52.9901C38 53.0476 38.0009 53.105 38.0026 53.1624H38V128.113V128.285H38.0026C38.2467 136.484 55.8945 143.103 77.6289 143.103C78.7835 143.103 79.9264 143.084 81.0559 143.048C79.9679 141.057 79.3519 138.79 79.3519 136.383C79.3519 128.485 85.9861 122.082 94.1697 122.082C97.0196 122.082 99.9689 120.494 101.354 118.003C104.459 112.416 110.342 108.437 117.258 107.724V53.1624H117.255ZM104.163 53.1624C104.163 58.6816 92.2833 63.1558 77.6289 63.1558C62.9745 63.1558 51.0948 58.6816 51.0948 53.1624C51.0948 47.6432 62.9745 43.169 77.6289 43.169C92.2833 43.169 104.163 47.6432 104.163 53.1624Z" fill="#1B1612"/>
</g>
<path d="M62.8204 92.467C62.8204 92.041 62.6487 91.6425 62.3051 91.2715C61.9616 90.9005 61.5287 90.5638 61.0066 90.2615C60.4981 89.9455 59.8042 89.5607 58.9247 89.1072C57.8804 88.5576 57.0422 88.0904 56.4101 87.7056C55.778 87.3071 55.2352 86.8399 54.7817 86.304C54.342 85.7681 54.1221 85.1772 54.1221 84.5313C54.1221 83.8443 54.4107 83.1091 54.9878 82.3258C55.565 81.5288 56.2658 80.8624 57.0903 80.3265C57.9285 79.7768 58.698 79.502 59.3988 79.502C60.2508 79.502 61.2402 79.605 62.367 79.8111C63.4938 80.0173 64.3183 80.2371 64.8404 80.4707V84.4695H64.0572C63.3838 83.3564 62.6418 82.4907 61.8311 81.8724C61.0341 81.254 60.1958 80.9448 59.3164 80.9448C58.5331 80.9448 57.9079 81.1922 57.4407 81.6869C56.9872 82.1678 56.7605 82.7999 56.7605 83.5832C56.7605 84.0366 56.9322 84.4626 57.2758 84.8611C57.6331 85.2459 58.0659 85.5894 58.5743 85.8917C59.0965 86.194 59.8179 86.5857 60.7386 87.0666C61.7555 87.5751 62.58 88.0285 63.2121 88.427C63.8442 88.8118 64.3732 89.2653 64.7992 89.7874C65.2389 90.2959 65.4588 90.873 65.4588 91.5188C65.4588 92.2059 65.1496 92.948 64.5313 93.745C63.9129 94.5282 63.1571 95.1947 62.2639 95.7443C61.3845 96.2803 60.5806 96.5482 59.8523 96.5482C58.9591 96.5482 57.8941 96.4452 56.6574 96.239C55.4344 96.0329 54.555 95.813 54.0191 95.5794V91.5807H54.8023C55.5031 92.6937 56.3001 93.5594 57.1933 94.1778C58.0865 94.7962 59.0072 95.1054 59.9554 95.1054C60.5188 95.1054 61.0203 94.9817 61.46 94.7343C61.8998 94.487 62.2364 94.1641 62.47 93.7656C62.7036 93.3533 62.8204 92.9205 62.8204 92.467ZM88.7339 100.032C86.5903 101.049 85.1131 101.557 84.3023 101.557C83.7939 101.557 83.0106 101.014 81.9525 99.9286C80.9082 98.8568 79.7196 97.5445 78.3866 95.9917C77.466 96.349 76.5865 96.5276 75.7483 96.5276C74.2917 96.5276 73 96.1841 71.8732 95.497C70.7601 94.7962 69.8944 93.8274 69.2761 92.5907C68.6577 91.354 68.3485 89.9523 68.3485 88.3858C68.3485 86.7781 68.8157 85.294 69.7502 83.9336C70.6846 82.5594 71.8457 81.4807 73.2336 80.6975C74.6215 79.9005 75.9475 79.502 77.2117 79.502C78.6683 79.502 79.9532 79.8524 81.0662 80.5532C82.193 81.254 83.0656 82.2228 83.684 83.4595C84.3023 84.6962 84.6115 86.0979 84.6115 87.6644C84.6115 89.2446 84.158 90.7081 83.2511 92.0548C82.3442 93.4014 81.1968 94.4801 79.8089 95.2909C81.1006 96.2665 82.3098 97.146 83.4366 97.9292C84.5772 98.7125 85.2711 99.1041 85.5184 99.1041H88.3011L88.7339 100.032ZM71.1518 87.3964C71.1518 88.7431 71.3648 89.9798 71.7908 91.1066C72.2167 92.2197 72.8626 93.1129 73.7283 93.7862C74.6077 94.4595 75.6864 94.7962 76.9644 94.7962C77.8713 94.7962 78.6958 94.5351 79.4379 94.0129C80.1936 93.477 80.7845 92.7418 81.2105 91.8074C81.6365 90.8593 81.8495 89.8012 81.8495 88.6331C81.8495 87.2727 81.6365 86.036 81.2105 84.923C80.7845 83.7962 80.1387 82.903 79.273 82.2434C78.4073 81.57 77.3286 81.2334 76.0369 81.2334C75.1299 81.2334 74.2986 81.5013 73.5428 82.0373C72.8007 82.5594 72.2167 83.2946 71.7908 84.2428C71.3648 85.1772 71.1518 86.2284 71.1518 87.3964ZM99.6524 96.1154H87.2851V95.4764L89.2227 93.9511V81.4601L87.079 80.7387L87.4913 79.9142H93.7573V80.5532L91.7992 82.0785V95.1878H97.1171L100.147 90.715L100.765 90.9211V96.4864L99.6524 96.1154Z" fill="#CBB796"/>
</g>
<defs>
<filter id="filter0_d_340_1153" x="0.799999" y="0.799999" width="190.185" height="190.53" filterUnits="userSpaceOnUse" color-interpolation-filters="sRGB">
<feFlood flood-opacity="0" result="BackgroundImageFix"/>
<feColorMatrix in="SourceAlpha" type="matrix" values="0 0 0 0 0 0 0 0 0 0 0 0 0 0 0 0 0 0 127 0" result="hardAlpha"/>
<feOffset/>
<feGaussianBlur stdDeviation="18.6"/>
<feComposite in2="hardAlpha" operator="out"/>
<feColorMatrix type="matrix" values="0 0 0 0 0.105882 0 0 0 0 0.0862745 0 0 0 0 0.0705882 0 0 0 1 0"/>
<feBlend mode="normal" in2="BackgroundImageFix" result="effect1_dropShadow_340_1153"/>
<feBlend mode="normal" in="SourceGraphic" in2="effect1_dropShadow_340_1153" result="shape"/>
</filter>
<filter id="filter1_d_340_1153" x="84.1763" y="111.055" width="71.6767" height="44.4533" filterUnits="userSpaceOnUse" color-interpolation-filters="sRGB">
<feFlood flood-opacity="0" result="BackgroundImageFix"/>
<feColorMatrix in="SourceAlpha" type="matrix" values="0 0 0 0 0 0 0 0 0 0 0 0 0 0 0 0 0 0 127 0" result="hardAlpha"/>
<feOffset dx="2.0676" dy="1.3784"/>
<feComposite in2="hardAlpha" operator="out"/>
<feColorMatrix type="matrix" values="0 0 0 0 0.972549 0 0 0 0 0.654902 0 0 0 0 0.247059 0 0 0 1 0"/>
<feBlend mode="normal" in2="BackgroundImageFix" result="effect1_dropShadow_340_1153"/>
<feBlend mode="normal" in="SourceGraphic" in2="effect1_dropShadow_340_1153" result="shape"/>
</filter>
<filter id="filter2_d_340_1153" x="38" y="38" width="80.9808" height="107.86" filterUnits="userSpaceOnUse" color-interpolation-filters="sRGB">
<feFlood flood-opacity="0" result="BackgroundImageFix"/>
<feColorMatrix in="SourceAlpha" type="matrix" values="0 0 0 0 0 0 0 0 0 0 0 0 0 0 0 0 0 0 127 0" result="hardAlpha"/>
<feOffset dx="1.723" dy="2.7568"/>
<feComposite in2="hardAlpha" operator="out"/>
<feColorMatrix type="matrix" values="0 0 0 0 0.858824 0 0 0 0 0.360784 0 0 0 0 0.00392157 0 0 0 1 0"/>
<feBlend mode="normal" in2="BackgroundImageFix" result="effect1_dropShadow_340_1153"/>
<feBlend mode="normal" in="SourceGraphic" in2="effect1_dropShadow_340_1153" result="shape"/>
</filter>
</defs>
</svg>
