<svg width="101" height="117" viewBox="0 0 101 117" fill="none" xmlns="http://www.w3.org/2000/svg">
<rect width="58.1207" height="58.1207" transform="matrix(0.866025 0.5 -2.20305e-08 1 0 28.949)" fill="#CBB796"/>
<path fill-rule="evenodd" clip-rule="evenodd" d="M0 28.949L50.334 58.0093L50.334 116.13L5.24143 90.0958L19.8981 81.6338L41.4629 94.0842L41.4629 63.1311L14.6566 47.6545L14.6566 72.6928L-1.15012e-06 81.1548L0 28.949Z" fill="#DB5C01"/>
<rect width="58.1207" height="58.1207" transform="matrix(-0.866025 0.5 -0.866025 -0.5 100.668 29.0603)" fill="#CBB796"/>
<path fill-rule="evenodd" clip-rule="evenodd" d="M100.668 29.0603L50.334 58.1206L1.31308e-05 29.0603L45.0926 3.02611L45.0926 19.9501L23.1421 32.6233L49.9483 48.0998L76.7545 32.6233L55.4564 20.3268L55.4564 2.95738L100.668 29.0603Z" fill="#F8A73F"/>
<rect width="58.1207" height="58.1207" transform="matrix(0.866025 -0.5 2.20305e-08 1 50.3267 58.0093)" fill="#CBB796"/>
<path fill-rule="evenodd" clip-rule="evenodd" d="M50.3267 58.0093L100.661 28.9489L100.661 81.1582L86.0041 72.6962L86.0041 47.6544L59.1978 63.131L59.1978 94.0842L80.7597 81.6355L95.4163 90.0975L50.3267 116.13L50.3267 58.0093Z" fill="#1B1612"/>
</svg>
